# MagicaVoxel @ Ephtracy

# group
o 

# material
mtllib nature-14.mtl
usemtl palette

# normals
vn 1 0 0
vn -1 0 0
vn 0 0 1
vn 0 0 -1
vn 0 -1 0
vn 0 1 0

# texcoords
vt 0.525391 0.5
vt 0.591797 0.5

# verts
v 10.7 3.6 -6.6
v 10.7 3.6 -7.2
v 10.7 3.6 -7.6
v 10.7 3.6 -7.8
v 10.7 3.6 -8.3
v 10.7 3.6 -8.9
v 10.7 3.6 -9
v 10.7 3.6 -9.5
v 10.7 3.7 -6.7
v 10.7 3.7 -6.8
v 10.7 3.7 -7.1
v 10.7 3.7 -7.2
v 10.7 3.7 -7.6
v 10.7 3.7 -7.8
v 10.7 3.7 -8.3
v 10.7 3.7 -8.4
v 10.7 3.7 -8.6
v 10.7 3.7 -8.9
v 10.7 3.7 -9
v 10.7 3.7 -9.1
v 10.7 3.7 -9.3
v 10.7 3.7 -9.5
v 10.7 3.8 -7.1
v 10.7 3.8 -7.2
v 10.7 3.8 -7.6
v 10.7 3.8 -7.8
v 10.7 3.8 -8.4
v 10.7 3.8 -8.6
v 10.7 3.8 -8.7
v 10.7 3.8 -8.9
v 10.7 3.8 -9.1
v 10.7 3.8 -9.3
v 10.7 3.9 -8.3
v 10.7 3.9 -8.7
v 10.7 3.9 -9.1
v 10.7 3.9 -9.4
v 10.7 4 -7.9
v 10.7 4 -8
v 10.7 4 -9
v 10.7 4 -9.1
v 10.7 4.1 -6.8
v 10.7 4.1 -6.9
v 10.7 4.1 -7.9
v 10.7 4.1 -8
v 10.7 4.2 -6.8
v 10.7 4.2 -6.9
v 10.7 4.2 -8.9
v 10.7 4.2 -9
v 10.7 4.2 -9.3
v 10.7 4.2 -9.4
v 10.7 4.3 -8.5
v 10.7 4.3 -8.6
v 10.7 4.3 -8.9
v 10.7 4.3 -9
v 10.7 4.3 -9.4
v 10.7 4.3 -9.5
v 10.7 4.4 -7
v 10.7 4.4 -7.1
v 10.7 4.4 -8.5
v 10.7 4.4 -8.6
v 10.7 4.4 -9.2
v 10.7 4.4 -9.3
v 10.7 4.4 -9.4
v 10.7 4.5 -7
v 10.7 4.5 -7.1
v 10.7 4.7 -6.7
v 10.7 4.7 -6.8
v 10.7 4.7 -6.9
v 10.7 4.8 -6.7
v 10.7 4.8 -6.8
v 10.7 4.8 -6.9
v 10.7 4.8 -8.6
v 10.7 4.8 -8.7
v 10.7 4.9 -8.6
v 10.7 4.9 -8.7
v 10.7 5 -6.8
v 10.7 5 -6.9
v 10.7 5 -7.4
v 10.7 5 -7.6
v 10.7 5 -8.1
v 10.7 5 -8.3
v 10.7 5.1 -6.7
v 10.7 5.1 -6.8
v 10.7 5.1 -6.9
v 10.7 5.1 -7.2
v 10.7 5.1 -7.7
v 10.7 5.1 -8.1
v 10.7 5.1 -8.2
v 10.7 5.1 -8.3
v 10.7 5.1 -8.6
v 10.7 5.1 -8.7
v 10.7 5.1 -9
v 10.7 5.1 -9.1
v 10.7 5.1 -9.2
v 10.7 5.1 -9.3
v 10.7 5.2 -6.8
v 10.7 5.2 -7.2
v 10.7 5.2 -7.4
v 10.7 5.2 -7.6
v 10.7 5.2 -7.7
v 10.7 5.2 -7.9
v 10.7 5.2 -8.1
v 10.7 5.2 -8.2
v 10.7 5.2 -8.3
v 10.7 5.2 -8.4
v 10.7 5.2 -8.6
v 10.7 5.2 -8.7
v 10.7 5.2 -8.8
v 10.7 5.2 -9.1
v 10.7 5.2 -9.2
v 10.7 5.3 -7.2
v 10.7 5.3 -7.9
v 10.7 5.3 -8.1
v 10.7 5.3 -8.3
v 10.7 5.3 -8.5
v 10.7 5.3 -8.7
v 10.7 5.3 -8.8
v 10.7 5.3 -9
v 10.7 5.4 -6.6
v 10.7 5.4 -8.4
v 10.7 5.4 -8.5
v 10.7 5.4 -9.5
v 10.6 3.6 -6.6
v 10.6 3.6 -7.2
v 10.6 3.6 -7.6
v 10.6 3.6 -7.8
v 10.6 3.6 -8.3
v 10.6 3.6 -8.9
v 10.6 3.6 -9
v 10.6 3.6 -9.5
v 10.6 3.7 -6.7
v 10.6 3.7 -6.8
v 10.6 3.7 -7.1
v 10.6 3.7 -7.2
v 10.6 3.7 -7.6
v 10.6 3.7 -7.8
v 10.6 3.7 -8.3
v 10.6 3.7 -8.4
v 10.6 3.7 -8.6
v 10.6 3.7 -8.9
v 10.6 3.7 -9
v 10.6 3.7 -9.1
v 10.6 3.7 -9.3
v 10.6 3.7 -9.5
v 10.6 3.8 -7.1
v 10.6 3.8 -7.2
v 10.6 3.8 -7.6
v 10.6 3.8 -7.8
v 10.6 3.8 -8.4
v 10.6 3.8 -8.6
v 10.6 3.8 -8.7
v 10.6 3.8 -8.9
v 10.6 3.8 -9.1
v 10.6 3.8 -9.3
v 10.6 3.9 -8.3
v 10.6 3.9 -8.7
v 10.6 3.9 -9.1
v 10.6 3.9 -9.4
v 10.6 4 -7.9
v 10.6 4 -8
v 10.6 4 -9
v 10.6 4 -9.1
v 10.6 4.1 -6.8
v 10.6 4.1 -6.9
v 10.6 4.1 -7.9
v 10.6 4.1 -8
v 10.6 4.2 -6.8
v 10.6 4.2 -6.9
v 10.6 4.2 -8.9
v 10.6 4.2 -9
v 10.6 4.2 -9.3
v 10.6 4.2 -9.4
v 10.6 4.3 -8.5
v 10.6 4.3 -8.6
v 10.6 4.3 -8.9
v 10.6 4.3 -9
v 10.6 4.3 -9.4
v 10.6 4.3 -9.5
v 10.6 4.4 -7
v 10.6 4.4 -7.1
v 10.6 4.4 -8.5
v 10.6 4.4 -8.6
v 10.6 4.4 -9.2
v 10.6 4.4 -9.3
v 10.6 4.4 -9.4
v 10.6 4.5 -7
v 10.6 4.5 -7.1
v 10.6 4.7 -6.7
v 10.6 4.7 -6.8
v 10.6 4.7 -6.9
v 10.6 4.8 -6.7
v 10.6 4.8 -6.8
v 10.6 4.8 -6.9
v 10.6 4.8 -8.6
v 10.6 4.8 -8.7
v 10.6 4.9 -8.6
v 10.6 4.9 -8.7
v 10.6 5 -6.8
v 10.6 5 -6.9
v 10.6 5 -7.4
v 10.6 5 -7.6
v 10.6 5 -8.1
v 10.6 5 -8.3
v 10.6 5.1 -6.7
v 10.6 5.1 -6.8
v 10.6 5.1 -6.9
v 10.6 5.1 -7.2
v 10.6 5.1 -7.7
v 10.6 5.1 -8.1
v 10.6 5.1 -8.2
v 10.6 5.1 -8.3
v 10.6 5.1 -8.6
v 10.6 5.1 -8.7
v 10.6 5.1 -9
v 10.6 5.1 -9.1
v 10.6 5.1 -9.2
v 10.6 5.1 -9.3
v 10.6 5.2 -6.8
v 10.6 5.2 -7.2
v 10.6 5.2 -7.4
v 10.6 5.2 -7.6
v 10.6 5.2 -7.7
v 10.6 5.2 -7.9
v 10.6 5.2 -8.1
v 10.6 5.2 -8.2
v 10.6 5.2 -8.3
v 10.6 5.2 -8.4
v 10.6 5.2 -8.6
v 10.6 5.2 -8.7
v 10.6 5.2 -8.8
v 10.6 5.2 -9.1
v 10.6 5.2 -9.2
v 10.6 5.3 -7.2
v 10.6 5.3 -7.9
v 10.6 5.3 -8.1
v 10.6 5.3 -8.3
v 10.6 5.3 -8.5
v 10.6 5.3 -8.7
v 10.6 5.3 -8.8
v 10.6 5.3 -9
v 10.6 5.4 -6.6
v 10.6 5.4 -8.4
v 10.6 5.4 -8.5
v 10.6 5.4 -9.5
v 10.7 3.6 -6.6
v 10.7 5.4 -6.6
v 10.6 3.6 -6.6
v 10.6 5.4 -6.6
v 10.7 4.4 -7.1
v 10.7 4.5 -7.1
v 10.6 4.4 -7.1
v 10.6 4.5 -7.1
v 10.7 4 -8
v 10.7 4.1 -8
v 10.6 4 -8
v 10.6 4.1 -8
v 10.7 4.3 -8.6
v 10.7 4.4 -8.6
v 10.6 4.3 -8.6
v 10.6 4.4 -8.6
v 10.7 4.8 -8.7
v 10.7 4.9 -8.7
v 10.6 4.8 -8.7
v 10.6 4.9 -8.7
v 10.7 4.2 -9
v 10.7 4.3 -9
v 10.6 4.2 -9
v 10.6 4.3 -9
v 10.7 4.4 -7
v 10.7 4.5 -7
v 10.6 4.4 -7
v 10.6 4.5 -7
v 10.7 4 -7.9
v 10.7 4.1 -7.9
v 10.6 4 -7.9
v 10.6 4.1 -7.9
v 10.7 4.3 -8.5
v 10.7 4.4 -8.5
v 10.6 4.3 -8.5
v 10.6 4.4 -8.5
v 10.7 4.8 -8.6
v 10.7 4.9 -8.6
v 10.6 4.8 -8.6
v 10.6 4.9 -8.6
v 10.7 4.2 -8.9
v 10.7 4.3 -8.9
v 10.6 4.2 -8.9
v 10.6 4.3 -8.9
v 10.7 3.6 -9.5
v 10.7 3.7 -9.5
v 10.7 4.3 -9.5
v 10.7 5.4 -9.5
v 10.6 3.6 -9.5
v 10.6 3.7 -9.5
v 10.6 4.3 -9.5
v 10.6 5.4 -9.5
v 10.7 3.6 -6.6
v 10.6 3.6 -6.6
v 10.7 3.6 -7.2
v 10.6 3.6 -7.2
v 10.7 3.6 -7.6
v 10.6 3.6 -7.6
v 10.7 3.6 -7.8
v 10.6 3.6 -7.8
v 10.7 3.6 -8.3
v 10.6 3.6 -8.3
v 10.7 3.6 -8.9
v 10.6 3.6 -8.9
v 10.7 3.6 -9
v 10.6 3.6 -9
v 10.7 3.6 -9.5
v 10.6 3.6 -9.5
v 10.7 4.1 -7.9
v 10.6 4.1 -7.9
v 10.7 4.1 -8
v 10.6 4.1 -8
v 10.7 4.3 -8.9
v 10.6 4.3 -8.9
v 10.7 4.3 -9
v 10.6 4.3 -9
v 10.7 4.4 -8.5
v 10.6 4.4 -8.5
v 10.7 4.4 -8.6
v 10.6 4.4 -8.6
v 10.7 4.5 -7
v 10.6 4.5 -7
v 10.7 4.5 -7.1
v 10.6 4.5 -7.1
v 10.7 4.9 -8.6
v 10.6 4.9 -8.6
v 10.7 4.9 -8.7
v 10.6 4.9 -8.7
v 10.7 4 -7.9
v 10.6 4 -7.9
v 10.7 4 -8
v 10.6 4 -8
v 10.7 4.2 -8.9
v 10.6 4.2 -8.9
v 10.7 4.2 -9
v 10.6 4.2 -9
v 10.7 4.3 -8.5
v 10.6 4.3 -8.5
v 10.7 4.3 -8.6
v 10.6 4.3 -8.6
v 10.7 4.4 -7
v 10.6 4.4 -7
v 10.7 4.4 -7.1
v 10.6 4.4 -7.1
v 10.7 4.8 -8.6
v 10.6 4.8 -8.6
v 10.7 4.8 -8.7
v 10.6 4.8 -8.7
v 10.7 5.4 -6.6
v 10.6 5.4 -6.6
v 10.7 5.4 -8.4
v 10.6 5.4 -8.4
v 10.7 5.4 -8.5
v 10.6 5.4 -8.5
v 10.7 5.4 -9.5
v 10.6 5.4 -9.5

# faces
f 1/1/1 2/1/1 9/1/1
f 9/1/1 2/1/1 10/1/1
f 10/1/1 2/1/1 11/1/1
f 2/2/1 3/2/1 12/2/1
f 11/1/1 2/1/1 12/1/1
f 3/1/1 4/1/1 13/1/1
f 12/2/1 3/2/1 13/2/1
f 4/2/1 5/2/1 14/2/1
f 13/1/1 4/1/1 14/1/1
f 5/1/1 6/1/1 15/1/1
f 14/2/1 5/2/1 15/2/1
f 15/1/1 6/1/1 16/1/1
f 16/1/1 6/1/1 17/1/1
f 6/2/1 7/2/1 18/2/1
f 17/1/1 6/1/1 18/1/1
f 7/1/1 8/1/1 19/1/1
f 18/2/1 7/2/1 19/2/1
f 19/1/1 8/1/1 20/1/1
f 20/1/1 8/1/1 21/1/1
f 21/1/1 8/1/1 22/1/1
f 10/1/1 11/1/1 23/1/1
f 11/2/1 12/2/1 23/2/1
f 12/1/1 13/1/1 24/1/1
f 23/2/1 12/2/1 24/2/1
f 13/2/1 14/2/1 25/2/1
f 24/1/1 13/1/1 25/1/1
f 14/1/1 15/1/1 26/1/1
f 25/2/1 14/2/1 26/2/1
f 16/1/1 17/1/1 27/1/1
f 15/2/1 16/2/1 27/2/1
f 17/2/1 18/2/1 28/2/1
f 27/1/1 17/1/1 28/1/1
f 28/2/1 18/2/1 29/2/1
f 18/1/1 19/1/1 30/1/1
f 29/2/1 18/2/1 30/2/1
f 19/2/1 20/2/1 31/2/1
f 20/1/1 21/1/1 31/1/1
f 21/2/1 22/2/1 32/2/1
f 31/1/1 21/1/1 32/1/1
f 15/2/1 27/2/1 33/2/1
f 23/1/1 24/1/1 33/1/1
f 26/1/1 15/1/1 33/1/1
f 27/2/1 28/2/1 33/2/1
f 24/1/1 25/1/1 33/1/1
f 25/1/1 26/1/1 33/1/1
f 28/2/1 29/2/1 33/2/1
f 29/1/1 30/1/1 34/1/1
f 33/2/1 29/2/1 34/2/1
f 19/2/1 31/2/1 35/2/1
f 31/2/1 32/2/1 35/2/1
f 32/2/1 22/2/1 36/2/1
f 35/2/1 32/2/1 36/2/1
f 33/1/1 34/1/1 37/1/1
f 23/1/1 33/1/1 37/1/1
f 37/1/1 34/1/1 38/1/1
f 19/2/1 35/2/1 39/2/1
f 38/1/1 34/1/1 39/1/1
f 34/1/1 30/1/1 39/1/1
f 30/1/1 19/1/1 39/1/1
f 35/1/1 36/1/1 40/1/1
f 39/2/1 35/2/1 40/2/1
f 23/1/1 37/1/1 41/1/1
f 10/1/1 23/1/1 41/1/1
f 9/2/1 10/2/1 41/2/1
f 41/1/1 37/1/1 42/1/1
f 42/1/1 37/1/1 43/1/1
f 39/1/1 40/1/1 44/1/1
f 38/1/1 39/1/1 44/1/1
f 41/2/1 42/2/1 45/2/1
f 9/2/1 41/2/1 45/2/1
f 42/1/1 43/1/1 46/1/1
f 45/2/1 42/2/1 46/2/1
f 43/1/1 44/1/1 46/1/1
f 44/1/1 40/1/1 47/1/1
f 46/1/1 44/1/1 47/1/1
f 47/1/1 40/1/1 48/1/1
f 40/1/1 36/1/1 49/1/1
f 48/1/1 40/1/1 49/1/1
f 36/2/1 22/2/1 50/2/1
f 49/1/1 36/1/1 50/1/1
f 45/1/1 46/1/1 51/1/1
f 46/1/1 47/1/1 51/1/1
f 51/1/1 47/1/1 52/1/1
f 52/1/1 47/1/1 53/1/1
f 48/1/1 49/1/1 54/1/1
f 50/2/1 22/2/1 55/2/1
f 49/2/1 50/2/1 55/2/1
f 55/2/1 22/2/1 56/2/1
f 45/1/1 51/1/1 57/1/1
f 57/1/1 51/1/1 58/1/1
f 58/1/1 51/1/1 59/1/1
f 53/1/1 54/1/1 60/1/1
f 52/1/1 53/1/1 60/1/1
f 54/1/1 49/1/1 61/1/1
f 60/1/1 54/1/1 61/1/1
f 49/2/1 55/2/1 62/2/1
f 61/1/1 49/1/1 62/1/1
f 55/1/1 56/1/1 63/1/1
f 62/2/1 55/2/1 63/2/1
f 45/1/1 57/1/1 64/1/1
f 58/1/1 59/1/1 65/1/1
f 59/1/1 60/1/1 65/1/1
f 60/1/1 61/1/1 65/1/1
f 9/2/1 45/2/1 66/2/1
f 1/1/1 9/1/1 66/1/1
f 45/1/1 64/1/1 67/1/1
f 66/2/1 45/2/1 67/2/1
f 64/1/1 65/1/1 67/1/1
f 67/1/1 65/1/1 68/1/1
f 1/1/1 66/1/1 69/1/1
f 66/1/1 67/1/1 69/1/1
f 67/2/1 68/2/1 70/2/1
f 69/1/1 67/1/1 70/1/1
f 68/1/1 65/1/1 71/1/1
f 70/2/1 68/2/1 71/2/1
f 65/1/1 61/1/1 72/1/1
f 71/1/1 65/1/1 72/1/1
f 72/1/1 61/1/1 73/1/1
f 70/1/1 71/1/1 74/1/1
f 71/1/1 72/1/1 74/1/1
f 73/1/1 61/1/1 75/1/1
f 69/2/1 70/2/1 76/2/1
f 74/1/1 75/1/1 76/1/1
f 70/1/1 74/1/1 76/1/1
f 76/1/1 75/1/1 77/1/1
f 77/1/1 75/1/1 78/1/1
f 78/1/1 75/1/1 79/1/1
f 79/1/1 75/1/1 80/1/1
f 80/1/1 75/1/1 81/1/1
f 1/1/1 69/1/1 82/1/1
f 69/2/1 76/2/1 82/2/1
f 76/2/1 77/2/1 82/2/1
f 82/2/1 77/2/1 83/2/1
f 77/1/1 78/1/1 84/1/1
f 83/2/1 77/2/1 84/2/1
f 84/1/1 78/1/1 85/1/1
f 79/1/1 80/1/1 86/1/1
f 80/2/1 81/2/1 87/2/1
f 86/1/1 80/1/1 87/1/1
f 87/2/1 81/2/1 88/2/1
f 81/1/1 75/1/1 89/1/1
f 88/2/1 81/2/1 89/2/1
f 89/1/1 75/1/1 90/1/1
f 75/1/1 61/1/1 91/1/1
f 90/1/1 75/1/1 91/1/1
f 91/1/1 61/1/1 92/1/1
f 92/1/1 61/1/1 93/1/1
f 61/2/1 62/2/1 94/2/1
f 93/1/1 61/1/1 94/1/1
f 62/1/1 63/1/1 95/1/1
f 94/2/1 62/2/1 95/2/1
f 82/1/1 83/1/1 96/1/1
f 83/2/1 84/2/1 96/2/1
f 84/2/1 85/2/1 96/2/1
f 85/1/1 78/1/1 97/1/1
f 96/2/1 85/2/1 97/2/1
f 78/2/1 79/2/1 98/2/1
f 97/1/1 78/1/1 98/1/1
f 79/1/1 86/1/1 99/1/1
f 98/2/1 79/2/1 99/2/1
f 87/2/1 88/2/1 100/2/1
f 99/1/1 86/1/1 100/1/1
f 86/2/1 87/2/1 100/2/1
f 100/2/1 88/2/1 101/2/1
f 101/2/1 88/2/1 102/2/1
f 88/1/1 89/1/1 103/1/1
f 102/2/1 88/2/1 103/2/1
f 89/2/1 90/2/1 104/2/1
f 103/1/1 89/1/1 104/1/1
f 104/2/1 90/2/1 105/2/1
f 90/1/1 91/1/1 106/1/1
f 105/2/1 90/2/1 106/2/1
f 91/2/1 92/2/1 107/2/1
f 106/1/1 91/1/1 107/1/1
f 107/2/1 92/2/1 108/2/1
f 92/1/1 93/1/1 109/1/1
f 93/2/1 94/2/1 109/2/1
f 94/1/1 95/1/1 110/1/1
f 109/2/1 94/2/1 110/2/1
f 98/2/1 99/2/1 111/2/1
f 97/2/1 98/2/1 111/2/1
f 96/1/1 97/1/1 111/1/1
f 99/2/1 100/2/1 111/2/1
f 100/2/1 101/2/1 111/2/1
f 101/1/1 102/1/1 112/1/1
f 111/2/1 101/2/1 112/2/1
f 102/2/1 103/2/1 113/2/1
f 112/1/1 102/1/1 113/1/1
f 103/2/1 104/2/1 113/2/1
f 104/1/1 105/1/1 114/1/1
f 113/2/1 104/2/1 114/2/1
f 106/2/1 107/2/1 115/2/1
f 105/2/1 106/2/1 115/2/1
f 107/1/1 108/1/1 116/1/1
f 115/2/1 107/2/1 116/2/1
f 108/2/1 92/2/1 117/2/1
f 116/1/1 108/1/1 117/1/1
f 109/1/1 110/1/1 118/1/1
f 117/2/1 92/2/1 118/2/1
f 92/1/1 109/1/1 118/1/1
f 111/1/1 112/1/1 119/1/1
f 82/1/1 96/1/1 119/1/1
f 1/1/1 82/1/1 119/1/1
f 112/1/1 113/1/1 119/1/1
f 113/1/1 114/1/1 119/1/1
f 96/1/1 111/1/1 119/1/1
f 105/2/1 115/2/1 120/2/1
f 119/1/1 114/1/1 120/1/1
f 114/1/1 105/1/1 120/1/1
f 115/1/1 116/1/1 121/1/1
f 120/2/1 115/2/1 121/2/1
f 116/1/1 117/1/1 121/1/1
f 117/1/1 118/1/1 121/1/1
f 118/1/1 110/1/1 122/1/1
f 121/1/1 118/1/1 122/1/1
f 63/1/1 56/1/1 122/1/1
f 95/1/1 63/1/1 122/1/1
f 110/1/1 95/1/1 122/1/1
f 131/1/2 124/1/2 123/1/2
f 132/1/2 124/1/2 131/1/2
f 133/1/2 124/1/2 132/1/2
f 134/2/2 125/2/2 124/2/2
f 134/1/2 124/1/2 133/1/2
f 135/1/2 126/1/2 125/1/2
f 135/2/2 125/2/2 134/2/2
f 136/2/2 127/2/2 126/2/2
f 136/1/2 126/1/2 135/1/2
f 137/1/2 128/1/2 127/1/2
f 137/2/2 127/2/2 136/2/2
f 138/1/2 128/1/2 137/1/2
f 139/1/2 128/1/2 138/1/2
f 140/2/2 129/2/2 128/2/2
f 140/1/2 128/1/2 139/1/2
f 141/1/2 130/1/2 129/1/2
f 141/2/2 129/2/2 140/2/2
f 142/1/2 130/1/2 141/1/2
f 143/1/2 130/1/2 142/1/2
f 144/1/2 130/1/2 143/1/2
f 145/1/2 133/1/2 132/1/2
f 145/2/2 134/2/2 133/2/2
f 146/1/2 135/1/2 134/1/2
f 146/2/2 134/2/2 145/2/2
f 147/2/2 136/2/2 135/2/2
f 147/1/2 135/1/2 146/1/2
f 148/1/2 137/1/2 136/1/2
f 148/2/2 136/2/2 147/2/2
f 149/1/2 139/1/2 138/1/2
f 149/2/2 138/2/2 137/2/2
f 150/2/2 140/2/2 139/2/2
f 150/1/2 139/1/2 149/1/2
f 151/2/2 140/2/2 150/2/2
f 152/1/2 141/1/2 140/1/2
f 152/2/2 140/2/2 151/2/2
f 153/2/2 142/2/2 141/2/2
f 153/1/2 143/1/2 142/1/2
f 154/2/2 144/2/2 143/2/2
f 154/1/2 143/1/2 153/1/2
f 155/2/2 149/2/2 137/2/2
f 155/1/2 146/1/2 145/1/2
f 155/1/2 137/1/2 148/1/2
f 155/2/2 150/2/2 149/2/2
f 155/1/2 147/1/2 146/1/2
f 155/1/2 148/1/2 147/1/2
f 155/2/2 151/2/2 150/2/2
f 156/1/2 152/1/2 151/1/2
f 156/2/2 151/2/2 155/2/2
f 157/2/2 153/2/2 141/2/2
f 157/2/2 154/2/2 153/2/2
f 158/2/2 144/2/2 154/2/2
f 158/2/2 154/2/2 157/2/2
f 159/1/2 156/1/2 155/1/2
f 159/1/2 155/1/2 145/1/2
f 160/1/2 156/1/2 159/1/2
f 161/2/2 157/2/2 141/2/2
f 161/1/2 156/1/2 160/1/2
f 161/1/2 152/1/2 156/1/2
f 161/1/2 141/1/2 152/1/2
f 162/1/2 158/1/2 157/1/2
f 162/2/2 157/2/2 161/2/2
f 163/1/2 159/1/2 145/1/2
f 163/1/2 145/1/2 132/1/2
f 163/2/2 132/2/2 131/2/2
f 164/1/2 159/1/2 163/1/2
f 165/1/2 159/1/2 164/1/2
f 166/1/2 162/1/2 161/1/2
f 166/1/2 161/1/2 160/1/2
f 167/2/2 164/2/2 163/2/2
f 167/2/2 163/2/2 131/2/2
f 168/1/2 165/1/2 164/1/2
f 168/2/2 164/2/2 167/2/2
f 168/1/2 166/1/2 165/1/2
f 169/1/2 162/1/2 166/1/2
f 169/1/2 166/1/2 168/1/2
f 170/1/2 162/1/2 169/1/2
f 171/1/2 158/1/2 162/1/2
f 171/1/2 162/1/2 170/1/2
f 172/2/2 144/2/2 158/2/2
f 172/1/2 158/1/2 171/1/2
f 173/1/2 168/1/2 167/1/2
f 173/1/2 169/1/2 168/1/2
f 174/1/2 169/1/2 173/1/2
f 175/1/2 169/1/2 174/1/2
f 176/1/2 171/1/2 170/1/2
f 177/2/2 144/2/2 172/2/2
f 177/2/2 172/2/2 171/2/2
f 178/2/2 144/2/2 177/2/2
f 179/1/2 173/1/2 167/1/2
f 180/1/2 173/1/2 179/1/2
f 181/1/2 173/1/2 180/1/2
f 182/1/2 176/1/2 175/1/2
f 182/1/2 175/1/2 174/1/2
f 183/1/2 171/1/2 176/1/2
f 183/1/2 176/1/2 182/1/2
f 184/2/2 177/2/2 171/2/2
f 184/1/2 171/1/2 183/1/2
f 185/1/2 178/1/2 177/1/2
f 185/2/2 177/2/2 184/2/2
f 186/1/2 179/1/2 167/1/2
f 187/1/2 181/1/2 180/1/2
f 187/1/2 182/1/2 181/1/2
f 187/1/2 183/1/2 182/1/2
f 188/2/2 167/2/2 131/2/2
f 188/1/2 131/1/2 123/1/2
f 189/1/2 186/1/2 167/1/2
f 189/2/2 167/2/2 188/2/2
f 189/1/2 187/1/2 186/1/2
f 190/1/2 187/1/2 189/1/2
f 191/1/2 188/1/2 123/1/2
f 191/1/2 189/1/2 188/1/2
f 192/2/2 190/2/2 189/2/2
f 192/1/2 189/1/2 191/1/2
f 193/1/2 187/1/2 190/1/2
f 193/2/2 190/2/2 192/2/2
f 194/1/2 183/1/2 187/1/2
f 194/1/2 187/1/2 193/1/2
f 195/1/2 183/1/2 194/1/2
f 196/1/2 193/1/2 192/1/2
f 196/1/2 194/1/2 193/1/2
f 197/1/2 183/1/2 195/1/2
f 198/2/2 192/2/2 191/2/2
f 198/1/2 197/1/2 196/1/2
f 198/1/2 196/1/2 192/1/2
f 199/1/2 197/1/2 198/1/2
f 200/1/2 197/1/2 199/1/2
f 201/1/2 197/1/2 200/1/2
f 202/1/2 197/1/2 201/1/2
f 203/1/2 197/1/2 202/1/2
f 204/1/2 191/1/2 123/1/2
f 204/2/2 198/2/2 191/2/2
f 204/2/2 199/2/2 198/2/2
f 205/2/2 199/2/2 204/2/2
f 206/1/2 200/1/2 199/1/2
f 206/2/2 199/2/2 205/2/2
f 207/1/2 200/1/2 206/1/2
f 208/1/2 202/1/2 201/1/2
f 209/2/2 203/2/2 202/2/2
f 209/1/2 202/1/2 208/1/2
f 210/2/2 203/2/2 209/2/2
f 211/1/2 197/1/2 203/1/2
f 211/2/2 203/2/2 210/2/2
f 212/1/2 197/1/2 211/1/2
f 213/1/2 183/1/2 197/1/2
f 213/1/2 197/1/2 212/1/2
f 214/1/2 183/1/2 213/1/2
f 215/1/2 183/1/2 214/1/2
f 216/2/2 184/2/2 183/2/2
f 216/1/2 183/1/2 215/1/2
f 217/1/2 185/1/2 184/1/2
f 217/2/2 184/2/2 216/2/2
f 218/1/2 205/1/2 204/1/2
f 218/2/2 206/2/2 205/2/2
f 218/2/2 207/2/2 206/2/2
f 219/1/2 200/1/2 207/1/2
f 219/2/2 207/2/2 218/2/2
f 220/2/2 201/2/2 200/2/2
f 220/1/2 200/1/2 219/1/2
f 221/1/2 208/1/2 201/1/2
f 221/2/2 201/2/2 220/2/2
f 222/2/2 210/2/2 209/2/2
f 222/1/2 208/1/2 221/1/2
f 222/2/2 209/2/2 208/2/2
f 223/2/2 210/2/2 222/2/2
f 224/2/2 210/2/2 223/2/2
f 225/1/2 211/1/2 210/1/2
f 225/2/2 210/2/2 224/2/2
f 226/2/2 212/2/2 211/2/2
f 226/1/2 211/1/2 225/1/2
f 227/2/2 212/2/2 226/2/2
f 228/1/2 213/1/2 212/1/2
f 228/2/2 212/2/2 227/2/2
f 229/2/2 214/2/2 213/2/2
f 229/1/2 213/1/2 228/1/2
f 230/2/2 214/2/2 229/2/2
f 231/1/2 215/1/2 214/1/2
f 231/2/2 216/2/2 215/2/2
f 232/1/2 217/1/2 216/1/2
f 232/2/2 216/2/2 231/2/2
f 233/2/2 221/2/2 220/2/2
f 233/2/2 220/2/2 219/2/2
f 233/1/2 219/1/2 218/1/2
f 233/2/2 222/2/2 221/2/2
f 233/2/2 223/2/2 222/2/2
f 234/1/2 224/1/2 223/1/2
f 234/2/2 223/2/2 233/2/2
f 235/2/2 225/2/2 224/2/2
f 235/1/2 224/1/2 234/1/2
f 235/2/2 226/2/2 225/2/2
f 236/1/2 227/1/2 226/1/2
f 236/2/2 226/2/2 235/2/2
f 237/2/2 229/2/2 228/2/2
f 237/2/2 228/2/2 227/2/2
f 238/1/2 230/1/2 229/1/2
f 238/2/2 229/2/2 237/2/2
f 239/2/2 214/2/2 230/2/2
f 239/1/2 230/1/2 238/1/2
f 240/1/2 232/1/2 231/1/2
f 240/2/2 214/2/2 239/2/2
f 240/1/2 231/1/2 214/1/2
f 241/1/2 234/1/2 233/1/2
f 241/1/2 218/1/2 204/1/2
f 241/1/2 204/1/2 123/1/2
f 241/1/2 235/1/2 234/1/2
f 241/1/2 236/1/2 235/1/2
f 241/1/2 233/1/2 218/1/2
f 242/2/2 237/2/2 227/2/2
f 242/1/2 236/1/2 241/1/2
f 242/1/2 227/1/2 236/1/2
f 243/1/2 238/1/2 237/1/2
f 243/2/2 237/2/2 242/2/2
f 243/1/2 239/1/2 238/1/2
f 243/1/2 240/1/2 239/1/2
f 244/1/2 232/1/2 240/1/2
f 244/1/2 240/1/2 243/1/2
f 244/1/2 178/1/2 185/1/2
f 244/1/2 185/1/2 217/1/2
f 244/1/2 217/1/2 232/1/2
f 245/1/3 246/1/3 247/1/3
f 247/1/3 246/1/3 248/1/3
f 249/1/3 250/1/3 251/1/3
f 251/1/3 250/1/3 252/1/3
f 253/1/3 254/1/3 255/1/3
f 255/1/3 254/1/3 256/1/3
f 257/1/3 258/1/3 259/1/3
f 259/1/3 258/1/3 260/1/3
f 261/1/3 262/1/3 263/1/3
f 263/1/3 262/1/3 264/1/3
f 265/1/3 266/1/3 267/1/3
f 267/1/3 266/1/3 268/1/3
f 271/1/4 270/1/4 269/1/4
f 272/1/4 270/1/4 271/1/4
f 275/1/4 274/1/4 273/1/4
f 276/1/4 274/1/4 275/1/4
f 279/1/4 278/1/4 277/1/4
f 280/1/4 278/1/4 279/1/4
f 283/1/4 282/1/4 281/1/4
f 284/1/4 282/1/4 283/1/4
f 287/1/4 286/1/4 285/1/4
f 288/1/4 286/1/4 287/1/4
f 293/1/4 290/1/4 289/1/4
f 294/2/4 291/2/4 290/2/4
f 294/1/4 290/1/4 293/1/4
f 295/1/4 292/1/4 291/1/4
f 295/2/4 291/2/4 294/2/4
f 296/1/4 292/1/4 295/1/4
f 297/1/5 298/1/5 299/1/5
f 299/1/5 298/1/5 300/1/5
f 299/2/5 300/2/5 301/2/5
f 301/2/5 300/2/5 302/2/5
f 301/1/5 302/1/5 303/1/5
f 303/1/5 302/1/5 304/1/5
f 303/2/5 304/2/5 305/2/5
f 305/2/5 304/2/5 306/2/5
f 305/1/5 306/1/5 307/1/5
f 307/1/5 306/1/5 308/1/5
f 307/2/5 308/2/5 309/2/5
f 309/2/5 308/2/5 310/2/5
f 309/1/5 310/1/5 311/1/5
f 311/1/5 310/1/5 312/1/5
f 313/1/5 314/1/5 315/1/5
f 315/1/5 314/1/5 316/1/5
f 317/1/5 318/1/5 319/1/5
f 319/1/5 318/1/5 320/1/5
f 321/1/5 322/1/5 323/1/5
f 323/1/5 322/1/5 324/1/5
f 325/1/5 326/1/5 327/1/5
f 327/1/5 326/1/5 328/1/5
f 329/1/5 330/1/5 331/1/5
f 331/1/5 330/1/5 332/1/5
f 335/1/6 334/1/6 333/1/6
f 336/1/6 334/1/6 335/1/6
f 339/1/6 338/1/6 337/1/6
f 340/1/6 338/1/6 339/1/6
f 343/1/6 342/1/6 341/1/6
f 344/1/6 342/1/6 343/1/6
f 347/1/6 346/1/6 345/1/6
f 348/1/6 346/1/6 347/1/6
f 351/1/6 350/1/6 349/1/6
f 352/1/6 350/1/6 351/1/6
f 355/1/6 354/1/6 353/1/6
f 356/1/6 354/1/6 355/1/6
f 357/2/6 356/2/6 355/2/6
f 358/2/6 356/2/6 357/2/6
f 359/1/6 358/1/6 357/1/6
f 360/1/6 358/1/6 359/1/6
