# MagicaVoxel @ Ephtracy

# group
o 

# material
mtllib nature-8.mtl
usemtl palette

# normals
vn 1 0 0
vn -1 0 0
vn 0 0 1
vn 0 0 -1
vn 0 -1 0
vn 0 1 0

# texcoords
vt 0.556641 0.5
vt 0.560547 0.5

# verts
v 11.1 6.6 -0.8
v 11.1 6.6 -1.1
v 11.1 6.6 -1.2
v 11.1 6.7 -0.8
v 11.1 6.7 -1.1
v 11.1 6.7 -1.2
v 11 6.6 -0.6
v 11 6.6 -0.8
v 11 6.6 -1.2
v 11 6.6 -1.4
v 11 6.7 -0.6
v 11 6.7 -0.8
v 11 6.7 -1
v 11 6.7 -1.1
v 11 6.7 -1.2
v 11 6.7 -1.4
v 11 6.8 -0.8
v 11 6.8 -1
v 11 6.8 -1.2
v 10.9 6.6 -0.4
v 10.9 6.6 -0.6
v 10.9 6.6 -1.4
v 10.9 6.6 -1.7
v 10.9 6.7 -0.4
v 10.9 6.7 -0.6
v 10.9 6.7 -0.8
v 10.9 6.7 -1.2
v 10.9 6.7 -1.3
v 10.9 6.7 -1.4
v 10.9 6.7 -1.7
v 10.9 6.8 -0.6
v 10.9 6.8 -0.8
v 10.9 6.8 -1.2
v 10.9 6.8 -1.3
v 10.9 6.8 -1.4
v 10.8 6.6 -0.2
v 10.8 6.6 -0.4
v 10.8 6.6 -1.7
v 10.8 6.6 -1.9
v 10.8 6.7 -0.2
v 10.8 6.7 -0.4
v 10.8 6.7 -0.6
v 10.8 6.7 -1.4
v 10.8 6.7 -1.7
v 10.8 6.7 -1.9
v 10.8 6.8 -0.4
v 10.8 6.8 -0.6
v 10.8 6.8 -1.4
v 10.8 6.8 -1.7
v 10.7 6.6 0
v 10.7 6.6 -0.1
v 10.7 6.6 -0.2
v 10.7 6.6 -1.9
v 10.7 6.6 -2.1
v 10.7 6.7 0
v 10.7 6.7 -0.1
v 10.7 6.7 -0.2
v 10.7 6.7 -0.4
v 10.7 6.7 -1.7
v 10.7 6.7 -1.9
v 10.7 6.7 -2.1
v 10.7 6.8 -0.2
v 10.7 6.8 -0.4
v 10.7 6.8 -1.7
v 10.7 6.8 -1.9
v 10.8 6.6 -0.6
v 10.8 6.6 -1.4
v 10.8 6.7 -0.6
v 10.8 6.7 -1.4
v 10.7 6.6 -0.4
v 10.7 6.6 -0.6
v 10.7 6.6 -1.4
v 10.7 6.6 -1.7
v 10.7 6.7 -0.4
v 10.7 6.7 -0.6
v 10.7 6.7 -0.7
v 10.7 6.7 -1.3
v 10.7 6.7 -1.4
v 10.7 6.7 -1.7
v 10.7 6.8 -0.7
v 10.7 6.8 -1.3
v 10.6 6.6 0
v 10.6 6.6 -0.1
v 10.6 6.6 -0.2
v 10.6 6.6 -0.4
v 10.6 6.6 -1.7
v 10.6 6.6 -1.9
v 10.6 6.6 -2.1
v 10.6 6.7 0
v 10.6 6.7 -0.1
v 10.6 6.7 -0.2
v 10.6 6.7 -0.4
v 10.6 6.7 -0.7
v 10.6 6.7 -1.3
v 10.6 6.7 -1.7
v 10.6 6.7 -1.9
v 10.6 6.7 -2.1
v 10.6 6.8 -0.2
v 10.6 6.8 -0.7
v 10.6 6.8 -1.3
v 10.6 6.8 -1.9
v 10.7 6.6 0
v 10.7 6.7 0
v 10.6 6.6 0
v 10.6 6.7 0
v 10.8 6.6 -0.2
v 10.8 6.7 -0.2
v 10.7 6.6 -0.2
v 10.7 6.7 -0.2
v 10.7 6.8 -0.2
v 10.6 6.7 -0.2
v 10.6 6.8 -0.2
v 10.9 6.6 -0.4
v 10.9 6.7 -0.4
v 10.8 6.6 -0.4
v 10.8 6.7 -0.4
v 10.8 6.8 -0.4
v 10.7 6.7 -0.4
v 10.7 6.8 -0.4
v 11 6.6 -0.6
v 11 6.7 -0.6
v 10.9 6.6 -0.6
v 10.9 6.7 -0.6
v 10.9 6.8 -0.6
v 10.8 6.7 -0.6
v 10.8 6.8 -0.6
v 11.1 6.6 -0.8
v 11.1 6.7 -0.8
v 11 6.6 -0.8
v 11 6.7 -0.8
v 11 6.8 -0.8
v 10.9 6.7 -0.8
v 10.9 6.8 -0.8
v 10.7 6.7 -1.3
v 10.7 6.8 -1.3
v 10.6 6.7 -1.3
v 10.6 6.8 -1.3
v 10.8 6.6 -1.4
v 10.8 6.7 -1.4
v 10.7 6.6 -1.4
v 10.7 6.7 -1.4
v 10.7 6.6 -1.7
v 10.7 6.7 -1.7
v 10.6 6.6 -1.7
v 10.6 6.7 -1.7
v 10.7 6.6 -0.4
v 10.7 6.7 -0.4
v 10.6 6.6 -0.4
v 10.6 6.7 -0.4
v 10.8 6.6 -0.6
v 10.8 6.7 -0.6
v 10.7 6.6 -0.6
v 10.7 6.7 -0.6
v 10.7 6.7 -0.7
v 10.7 6.8 -0.7
v 10.6 6.7 -0.7
v 10.6 6.8 -0.7
v 11.1 6.6 -1.2
v 11.1 6.7 -1.2
v 11 6.6 -1.2
v 11 6.7 -1.2
v 11 6.8 -1.2
v 10.9 6.7 -1.2
v 10.9 6.8 -1.2
v 11 6.6 -1.4
v 11 6.7 -1.4
v 10.9 6.6 -1.4
v 10.9 6.7 -1.4
v 10.9 6.8 -1.4
v 10.8 6.7 -1.4
v 10.8 6.8 -1.4
v 10.9 6.6 -1.7
v 10.9 6.7 -1.7
v 10.8 6.6 -1.7
v 10.8 6.7 -1.7
v 10.8 6.8 -1.7
v 10.7 6.7 -1.7
v 10.7 6.8 -1.7
v 10.8 6.6 -1.9
v 10.8 6.7 -1.9
v 10.7 6.6 -1.9
v 10.7 6.7 -1.9
v 10.7 6.8 -1.9
v 10.6 6.7 -1.9
v 10.6 6.8 -1.9
v 10.7 6.6 -2.1
v 10.7 6.7 -2.1
v 10.6 6.6 -2.1
v 10.6 6.7 -2.1
v 10.7 6.6 0
v 10.6 6.6 0
v 10.7 6.6 -0.1
v 10.6 6.6 -0.1
v 10.8 6.6 -0.2
v 10.7 6.6 -0.2
v 10.6 6.6 -0.2
v 10.9 6.6 -0.4
v 10.8 6.6 -0.4
v 10.7 6.6 -0.4
v 10.6 6.6 -0.4
v 11 6.6 -0.6
v 10.9 6.6 -0.6
v 10.8 6.6 -0.6
v 10.7 6.6 -0.6
v 11.1 6.6 -0.8
v 11 6.6 -0.8
v 10.9 6.6 -0.8
v 11.1 6.6 -1.1
v 11 6.6 -1.1
v 11.1 6.6 -1.2
v 11 6.6 -1.2
v 10.9 6.6 -1.2
v 11 6.6 -1.4
v 10.9 6.6 -1.4
v 10.8 6.6 -1.4
v 10.7 6.6 -1.4
v 10.9 6.6 -1.7
v 10.8 6.6 -1.7
v 10.7 6.6 -1.7
v 10.6 6.6 -1.7
v 10.8 6.6 -1.9
v 10.7 6.6 -1.9
v 10.6 6.6 -1.9
v 10.7 6.6 -2.1
v 10.6 6.6 -2.1
v 10.7 6.7 -0.4
v 10.6 6.7 -0.4
v 10.8 6.7 -0.6
v 10.7 6.7 -0.6
v 10.7 6.7 -0.7
v 10.6 6.7 -0.7
v 10.7 6.7 -1.3
v 10.6 6.7 -1.3
v 10.8 6.7 -1.4
v 10.7 6.7 -1.4
v 10.7 6.7 -1.7
v 10.6 6.7 -1.7
v 10.7 6.7 0
v 10.6 6.7 0
v 10.7 6.7 -0.1
v 10.6 6.7 -0.1
v 10.8 6.7 -0.2
v 10.7 6.7 -0.2
v 10.6 6.7 -0.2
v 10.9 6.7 -0.4
v 10.8 6.7 -0.4
v 10.7 6.7 -0.4
v 11 6.7 -0.6
v 10.9 6.7 -0.6
v 10.8 6.7 -0.6
v 11.1 6.7 -0.8
v 11 6.7 -0.8
v 10.9 6.7 -0.8
v 11 6.7 -1
v 11.1 6.7 -1.1
v 11 6.7 -1.1
v 11.1 6.7 -1.2
v 11 6.7 -1.2
v 10.9 6.7 -1.2
v 10.9 6.7 -1.3
v 11 6.7 -1.4
v 10.9 6.7 -1.4
v 10.8 6.7 -1.4
v 10.9 6.7 -1.7
v 10.8 6.7 -1.7
v 10.7 6.7 -1.7
v 10.8 6.7 -1.9
v 10.7 6.7 -1.9
v 10.6 6.7 -1.9
v 10.7 6.7 -2.1
v 10.6 6.7 -2.1
v 10.7 6.8 -0.2
v 10.6 6.8 -0.2
v 10.8 6.8 -0.4
v 10.7 6.8 -0.4
v 10.9 6.8 -0.6
v 10.8 6.8 -0.6
v 10.7 6.8 -0.7
v 10.6 6.8 -0.7
v 11 6.8 -0.8
v 10.9 6.8 -0.8
v 11 6.8 -1
v 10.9 6.8 -1
v 11 6.8 -1.2
v 10.9 6.8 -1.2
v 10.9 6.8 -1.3
v 10.8 6.8 -1.3
v 10.7 6.8 -1.3
v 10.6 6.8 -1.3
v 10.9 6.8 -1.4
v 10.8 6.8 -1.4
v 10.8 6.8 -1.7
v 10.7 6.8 -1.7
v 10.7 6.8 -1.9
v 10.6 6.8 -1.9

# faces
f 1/2/1 2/2/1 4/2/1
f 2/1/1 3/1/1 5/1/1
f 4/2/1 2/2/1 5/2/1
f 5/1/1 3/1/1 6/1/1
f 7/2/1 8/2/1 11/2/1
f 11/2/1 8/2/1 12/2/1
f 9/2/1 10/2/1 15/2/1
f 15/2/1 10/2/1 16/2/1
f 12/1/1 13/1/1 17/1/1
f 13/2/1 14/2/1 18/2/1
f 17/1/1 13/1/1 18/1/1
f 14/2/1 15/2/1 18/2/1
f 18/2/1 15/2/1 19/2/1
f 20/2/1 21/2/1 24/2/1
f 24/2/1 21/2/1 25/2/1
f 22/2/1 23/2/1 29/2/1
f 29/2/1 23/2/1 30/2/1
f 25/1/1 26/1/1 31/1/1
f 31/1/1 26/1/1 32/1/1
f 27/1/1 28/1/1 33/1/1
f 28/2/1 29/2/1 34/2/1
f 33/1/1 28/1/1 34/1/1
f 34/2/1 29/2/1 35/2/1
f 36/2/1 37/2/1 40/2/1
f 40/2/1 37/2/1 41/2/1
f 38/2/1 39/2/1 44/2/1
f 44/2/1 39/2/1 45/2/1
f 41/1/1 42/1/1 46/1/1
f 46/1/1 42/1/1 47/1/1
f 43/1/1 44/1/1 48/1/1
f 48/1/1 44/1/1 49/1/1
f 50/1/1 51/1/1 55/1/1
f 51/2/1 52/2/1 56/2/1
f 55/1/1 51/1/1 56/1/1
f 56/2/1 52/2/1 57/2/1
f 53/2/1 54/2/1 60/2/1
f 60/2/1 54/2/1 61/2/1
f 57/1/1 58/1/1 62/1/1
f 62/1/1 58/1/1 63/1/1
f 59/1/1 60/1/1 64/1/1
f 64/1/1 60/1/1 65/1/1
f 68/1/2 67/1/2 66/1/2
f 69/1/2 67/1/2 68/1/2
f 74/1/2 71/1/2 70/1/2
f 75/1/2 71/1/2 74/1/2
f 78/1/2 73/1/2 72/1/2
f 79/1/2 73/1/2 78/1/2
f 80/1/2 77/1/2 76/1/2
f 81/1/2 77/1/2 80/1/2
f 89/1/2 83/1/2 82/1/2
f 90/2/2 84/2/2 83/2/2
f 90/1/2 83/1/2 89/1/2
f 91/1/2 85/1/2 84/1/2
f 91/2/2 84/2/2 90/2/2
f 92/1/2 85/1/2 91/1/2
f 95/1/2 87/1/2 86/1/2
f 96/2/2 88/2/2 87/2/2
f 96/1/2 87/1/2 95/1/2
f 97/2/2 88/2/2 96/2/2
f 98/1/2 93/1/2 92/1/2
f 98/1/2 92/1/2 91/1/2
f 99/1/2 93/1/2 98/1/2
f 100/1/2 95/1/2 94/1/2
f 100/1/2 96/1/2 95/1/2
f 101/1/2 96/1/2 100/1/2
f 102/1/3 103/1/3 104/1/3
f 104/1/3 103/1/3 105/1/3
f 106/2/3 107/2/3 108/2/3
f 108/2/3 107/2/3 109/2/3
f 109/1/3 110/1/3 111/1/3
f 111/1/3 110/1/3 112/1/3
f 113/2/3 114/2/3 115/2/3
f 115/2/3 114/2/3 116/2/3
f 116/1/3 117/1/3 118/1/3
f 118/1/3 117/1/3 119/1/3
f 120/2/3 121/2/3 122/2/3
f 122/2/3 121/2/3 123/2/3
f 123/1/3 124/1/3 125/1/3
f 125/1/3 124/1/3 126/1/3
f 127/2/3 128/2/3 129/2/3
f 129/2/3 128/2/3 130/2/3
f 130/1/3 131/1/3 132/1/3
f 132/1/3 131/1/3 133/1/3
f 134/1/3 135/1/3 136/1/3
f 136/1/3 135/1/3 137/1/3
f 138/1/3 139/1/3 140/1/3
f 140/1/3 139/1/3 141/1/3
f 142/1/3 143/1/3 144/1/3
f 144/1/3 143/1/3 145/1/3
f 148/1/4 147/1/4 146/1/4
f 149/1/4 147/1/4 148/1/4
f 152/1/4 151/1/4 150/1/4
f 153/1/4 151/1/4 152/1/4
f 156/1/4 155/1/4 154/1/4
f 157/1/4 155/1/4 156/1/4
f 160/1/4 159/1/4 158/1/4
f 161/1/4 159/1/4 160/1/4
f 163/2/4 162/2/4 161/2/4
f 164/2/4 162/2/4 163/2/4
f 167/2/4 166/2/4 165/2/4
f 168/2/4 166/2/4 167/2/4
f 170/2/4 169/2/4 168/2/4
f 171/2/4 169/2/4 170/2/4
f 174/2/4 173/2/4 172/2/4
f 175/2/4 173/2/4 174/2/4
f 177/1/4 176/1/4 175/1/4
f 178/1/4 176/1/4 177/1/4
f 181/2/4 180/2/4 179/2/4
f 182/2/4 180/2/4 181/2/4
f 184/1/4 183/1/4 182/1/4
f 185/1/4 183/1/4 184/1/4
f 188/2/4 187/2/4 186/2/4
f 189/2/4 187/2/4 188/2/4
f 190/1/5 191/1/5 192/1/5
f 192/1/5 191/1/5 193/1/5
f 192/2/5 193/2/5 195/2/5
f 195/2/5 193/2/5 196/2/5
f 194/2/5 195/2/5 198/2/5
f 195/1/5 196/1/5 199/1/5
f 198/2/5 195/2/5 199/2/5
f 199/1/5 196/1/5 200/1/5
f 197/2/5 198/2/5 202/2/5
f 198/1/5 199/1/5 203/1/5
f 202/2/5 198/2/5 203/2/5
f 203/1/5 199/1/5 204/1/5
f 201/2/5 202/2/5 206/2/5
f 202/1/5 203/1/5 207/1/5
f 206/2/5 202/2/5 207/2/5
f 205/2/5 206/2/5 208/2/5
f 206/1/5 207/1/5 209/1/5
f 208/2/5 206/2/5 209/2/5
f 208/1/5 209/1/5 210/1/5
f 209/1/5 207/1/5 211/1/5
f 210/1/5 209/1/5 211/1/5
f 207/1/5 203/1/5 212/1/5
f 211/1/5 207/1/5 212/1/5
f 211/2/5 212/2/5 213/2/5
f 212/1/5 203/1/5 214/1/5
f 213/2/5 212/2/5 214/2/5
f 214/1/5 203/1/5 215/1/5
f 214/2/5 215/2/5 217/2/5
f 215/1/5 216/1/5 218/1/5
f 217/2/5 215/2/5 218/2/5
f 218/1/5 216/1/5 219/1/5
f 218/2/5 219/2/5 221/2/5
f 219/1/5 220/1/5 222/1/5
f 221/2/5 219/2/5 222/2/5
f 222/1/5 220/1/5 223/1/5
f 222/2/5 223/2/5 224/2/5
f 224/2/5 223/2/5 225/2/5
f 226/1/5 227/1/5 229/1/5
f 229/1/5 227/1/5 230/1/5
f 228/1/5 229/1/5 230/1/5
f 230/1/5 227/1/5 231/1/5
f 228/1/5 230/1/5 232/1/5
f 228/1/5 232/1/5 234/1/5
f 232/1/5 233/1/5 234/1/5
f 234/1/5 233/1/5 235/1/5
f 235/1/5 233/1/5 236/1/5
f 236/1/5 233/1/5 237/1/5
f 240/1/6 239/1/6 238/1/6
f 241/1/6 239/1/6 240/1/6
f 243/2/6 241/2/6 240/2/6
f 244/2/6 241/2/6 243/2/6
f 246/2/6 243/2/6 242/2/6
f 247/2/6 243/2/6 246/2/6
f 249/2/6 246/2/6 245/2/6
f 250/2/6 246/2/6 249/2/6
f 252/2/6 249/2/6 248/2/6
f 253/2/6 249/2/6 252/2/6
f 254/2/6 252/2/6 251/2/6
f 255/2/6 254/2/6 251/2/6
f 256/2/6 254/2/6 255/2/6
f 257/1/6 256/1/6 255/1/6
f 258/1/6 256/1/6 257/1/6
f 260/2/6 259/2/6 258/2/6
f 261/2/6 260/2/6 258/2/6
f 262/2/6 260/2/6 261/2/6
f 264/2/6 263/2/6 262/2/6
f 265/2/6 263/2/6 264/2/6
f 267/2/6 266/2/6 265/2/6
f 268/2/6 266/2/6 267/2/6
f 270/2/6 269/2/6 268/2/6
f 271/2/6 269/2/6 270/2/6
f 275/1/6 273/1/6 272/1/6
f 277/1/6 275/1/6 274/1/6
f 278/1/6 273/1/6 275/1/6
f 278/1/6 277/1/6 276/1/6
f 278/1/6 275/1/6 277/1/6
f 279/1/6 273/1/6 278/1/6
f 281/1/6 278/1/6 276/1/6
f 282/1/6 281/1/6 280/1/6
f 283/1/6 278/1/6 281/1/6
f 283/1/6 281/1/6 282/1/6
f 284/2/6 283/2/6 282/2/6
f 285/1/6 278/1/6 283/1/6
f 285/2/6 283/2/6 284/2/6
f 286/1/6 278/1/6 285/1/6
f 287/1/6 278/1/6 286/1/6
f 288/1/6 278/1/6 287/1/6
f 290/2/6 287/2/6 286/2/6
f 291/1/6 289/1/6 288/1/6
f 291/2/6 287/2/6 290/2/6
f 291/1/6 288/1/6 287/1/6
f 292/1/6 289/1/6 291/1/6
f 293/1/6 289/1/6 292/1/6
f 294/1/6 289/1/6 293/1/6
f 295/1/6 289/1/6 294/1/6
