# MagicaVoxel @ Ephtracy

# group
o 

# material
mtllib nature-18.mtl
usemtl palette

# normals
vn -1 0 0
vn 1 0 0
vn 0 0 1
vn 0 0 -1
vn 0 -1 0
vn 0 1 0

# texcoords
vt 0.677734 0.5
vt 0.748047 0.5
vt 0.751953 0.5
vt 0.755859 0.5

# verts
v 3.4 3.9 -3.8
v 3.4 3.9 -4
v 3.4 3.9 -4.2
v 3.4 3.9 -4.3
v 3.4 4 -3.8
v 3.4 4 -4
v 3.4 4 -4.2
v 3.4 4 -4.3
v 3.5 3.9 -4
v 3.5 3.9 -4.1
v 3.5 3.9 -4.3
v 3.5 3.9 -4.4
v 3.5 4 -4
v 3.5 4 -4.1
v 3.5 4 -4.3
v 3.5 4 -4.4
v 3.6 3.9 -3.6
v 3.6 3.9 -3.7
v 3.6 3.9 -4
v 3.6 3.9 -4.1
v 3.6 3.9 -4.2
v 3.6 4 -3.6
v 3.6 4 -3.7
v 3.6 4 -4
v 3.6 4 -4.1
v 3.6 4 -4.2
v 3.7 3.9 -3.5
v 3.7 3.9 -3.6
v 3.7 3.9 -4.2
v 3.7 3.9 -4.3
v 3.7 3.9 -4.5
v 3.7 3.9 -4.6
v 3.7 4 -3.5
v 3.7 4 -3.6
v 3.7 4 -4.2
v 3.7 4 -4.3
v 3.7 4 -4.5
v 3.7 4 -4.6
v 3.8 3.9 -3.7
v 3.8 3.9 -3.8
v 3.8 4 -3.7
v 3.8 4 -3.8
v 3.9 3.9 -3.6
v 3.9 3.9 -3.7
v 3.9 3.9 -4.4
v 3.9 3.9 -4.5
v 3.9 4 -3.6
v 3.9 4 -3.7
v 3.9 4 -4.4
v 3.9 4 -4.5
v 4 3.9 -3.5
v 4 3.9 -3.6
v 4 4 -3.5
v 4 4 -3.6
v 4.1 3.9 -4.5
v 4.1 3.9 -4.6
v 4.1 4 -4.5
v 4.1 4 -4.6
v 4.2 3.9 -4.3
v 4.2 3.9 -4.4
v 4.2 3.9 -4.5
v 4.2 4 -4.3
v 4.2 4 -4.4
v 4.2 4 -4.5
v 4.4 3.9 -3.8
v 4.4 3.9 -3.9
v 4.4 3.9 -4.1
v 4.4 3.9 -4.3
v 4.4 4 -3.8
v 4.4 4 -3.9
v 4.4 4 -4.1
v 4.4 4 -4.3
v 3.5 3.9 -3.8
v 3.5 3.9 -4
v 3.5 3.9 -4.2
v 3.5 3.9 -4.3
v 3.5 4 -3.8
v 3.5 4 -4
v 3.5 4 -4.2
v 3.5 4 -4.3
v 3.7 3.9 -3.6
v 3.7 3.9 -3.7
v 3.7 3.9 -3.8
v 3.7 4 -3.6
v 3.7 4 -3.7
v 3.7 4 -3.8
v 3.8 3.9 -3.5
v 3.8 3.9 -3.6
v 3.8 4 -3.5
v 3.8 4 -3.6
v 3.9 3.9 -4.5
v 3.9 3.9 -4.6
v 3.9 4 -4.5
v 3.9 4 -4.6
v 4 3.9 -3.6
v 4 3.9 -3.7
v 4 3.9 -4.4
v 4 3.9 -4.5
v 4 4 -3.6
v 4 4 -3.7
v 4 4 -4.4
v 4 4 -4.5
v 4.1 3.9 -4.3
v 4.1 3.9 -4.4
v 4.1 4 -4.3
v 4.1 4 -4.4
v 4.2 3.9 -3.5
v 4.2 3.9 -3.6
v 4.2 3.9 -3.8
v 4.2 3.9 -3.9
v 4.2 3.9 -4.5
v 4.2 3.9 -4.6
v 4.2 4 -3.5
v 4.2 4 -3.6
v 4.2 4 -3.8
v 4.2 4 -3.9
v 4.2 4 -4.5
v 4.2 4 -4.6
v 4.3 3.9 -3.9
v 4.3 3.9 -4
v 4.3 3.9 -4.1
v 4.3 3.9 -4.4
v 4.3 3.9 -4.5
v 4.3 4 -3.9
v 4.3 4 -4
v 4.3 4 -4.1
v 4.3 4 -4.4
v 4.3 4 -4.5
v 4.4 3.9 -3.7
v 4.4 3.9 -3.8
v 4.4 3.9 -4
v 4.4 3.9 -4.1
v 4.4 4 -3.7
v 4.4 4 -3.8
v 4.4 4 -4
v 4.4 4 -4.1
v 4.5 3.9 -3.8
v 4.5 3.9 -3.9
v 4.5 3.9 -4.1
v 4.5 3.9 -4.3
v 4.5 4 -3.8
v 4.5 4 -3.9
v 4.5 4 -4.1
v 4.5 4 -4.3
v 3.7 3.9 -3.5
v 3.7 4 -3.5
v 3.8 3.9 -3.5
v 3.8 4 -3.5
v 4 3.9 -3.5
v 4 4 -3.5
v 4.2 3.9 -3.5
v 4.2 4 -3.5
v 3.6 3.9 -3.6
v 3.6 4 -3.6
v 3.7 3.9 -3.6
v 3.7 4 -3.6
v 3.9 3.9 -3.6
v 3.9 4 -3.6
v 4 3.9 -3.6
v 4 4 -3.6
v 3.8 3.9 -3.7
v 3.8 4 -3.7
v 3.9 3.9 -3.7
v 3.9 4 -3.7
v 4 3.9 -3.7
v 4 4 -3.7
v 4.3 3.9 -3.7
v 4.3 4 -3.7
v 4.4 3.9 -3.7
v 4.4 4 -3.7
v 3.4 3.9 -3.8
v 3.4 4 -3.8
v 3.5 3.9 -3.8
v 3.5 4 -3.8
v 3.7 3.9 -3.8
v 3.7 4 -3.8
v 3.8 3.9 -3.8
v 3.8 4 -3.8
v 4.4 3.9 -3.8
v 4.4 4 -3.8
v 4.5 3.9 -3.8
v 4.5 4 -3.8
v 4.2 3.9 -3.9
v 4.2 4 -3.9
v 4.3 3.9 -3.9
v 4.3 4 -3.9
v 3.5 3.9 -4
v 3.5 4 -4
v 3.6 3.9 -4
v 3.6 4 -4
v 4.3 3.9 -4
v 4.3 4 -4
v 4.4 3.9 -4
v 4.4 4 -4
v 4.4 3.9 -4.1
v 4.4 4 -4.1
v 4.5 3.9 -4.1
v 4.5 4 -4.1
v 3.4 3.9 -4.2
v 3.4 4 -4.2
v 3.5 3.9 -4.2
v 3.5 4 -4.2
v 3.5 3.9 -4.3
v 3.5 4 -4.3
v 3.6 3.9 -4.3
v 3.6 4 -4.3
v 3.7 3.9 -4.3
v 3.7 4 -4.3
v 3.7 3.9 -4.5
v 3.7 4 -4.5
v 3.9 3.9 -4.5
v 3.9 4 -4.5
v 4.1 3.9 -4.5
v 4.1 4 -4.5
v 4.2 3.9 -4.5
v 4.2 4 -4.5
v 3.7 3.9 -3.6
v 3.7 4 -3.6
v 3.8 3.9 -3.6
v 3.8 4 -3.6
v 4 3.9 -3.6
v 4 4 -3.6
v 4.2 3.9 -3.6
v 4.2 4 -3.6
v 4.2 3.9 -3.8
v 4.2 4 -3.8
v 4.3 3.9 -3.8
v 4.3 4 -3.8
v 4.4 3.9 -3.8
v 4.4 4 -3.8
v 4.4 3.9 -3.9
v 4.4 4 -3.9
v 4.5 3.9 -3.9
v 4.5 4 -3.9
v 3.4 3.9 -4
v 3.4 4 -4
v 3.5 3.9 -4
v 3.5 4 -4
v 3.5 3.9 -4.1
v 3.5 4 -4.1
v 3.6 3.9 -4.1
v 3.6 4 -4.1
v 4.3 3.9 -4.1
v 4.3 4 -4.1
v 4.4 3.9 -4.1
v 4.4 4 -4.1
v 3.6 3.9 -4.2
v 3.6 4 -4.2
v 3.7 3.9 -4.2
v 3.7 4 -4.2
v 3.4 3.9 -4.3
v 3.4 4 -4.3
v 3.5 3.9 -4.3
v 3.5 4 -4.3
v 4.1 3.9 -4.3
v 4.1 4 -4.3
v 4.2 3.9 -4.3
v 4.2 4 -4.3
v 4.4 3.9 -4.3
v 4.4 4 -4.3
v 4.5 3.9 -4.3
v 4.5 4 -4.3
v 3.5 3.9 -4.4
v 3.5 4 -4.4
v 3.6 3.9 -4.4
v 3.6 4 -4.4
v 3.9 3.9 -4.4
v 3.9 4 -4.4
v 4 3.9 -4.4
v 4 4 -4.4
v 4.1 3.9 -4.4
v 4.1 4 -4.4
v 3.9 3.9 -4.5
v 3.9 4 -4.5
v 4 3.9 -4.5
v 4 4 -4.5
v 4.2 3.9 -4.5
v 4.2 4 -4.5
v 4.3 3.9 -4.5
v 4.3 4 -4.5
v 3.7 3.9 -4.6
v 3.7 4 -4.6
v 3.9 3.9 -4.6
v 3.9 4 -4.6
v 4.1 3.9 -4.6
v 4.1 4 -4.6
v 4.2 3.9 -4.6
v 4.2 4 -4.6
v 3.7 3.9 -3.5
v 3.8 3.9 -3.5
v 4 3.9 -3.5
v 4.2 3.9 -3.5
v 3.6 3.9 -3.6
v 3.7 3.9 -3.6
v 3.8 3.9 -3.6
v 3.9 3.9 -3.6
v 4 3.9 -3.6
v 4.2 3.9 -3.6
v 3.6 3.9 -3.7
v 3.7 3.9 -3.7
v 3.8 3.9 -3.7
v 3.9 3.9 -3.7
v 4 3.9 -3.7
v 4.3 3.9 -3.7
v 4.4 3.9 -3.7
v 3.4 3.9 -3.8
v 3.5 3.9 -3.8
v 3.7 3.9 -3.8
v 3.8 3.9 -3.8
v 4.1 3.9 -3.8
v 4.2 3.9 -3.8
v 4.3 3.9 -3.8
v 4.4 3.9 -3.8
v 4.5 3.9 -3.8
v 3.7 3.9 -3.9
v 3.8 3.9 -3.9
v 4.1 3.9 -3.9
v 4.2 3.9 -3.9
v 4.3 3.9 -3.9
v 4.4 3.9 -3.9
v 4.5 3.9 -3.9
v 3.4 3.9 -4
v 3.5 3.9 -4
v 3.6 3.9 -4
v 3.9 3.9 -4
v 4 3.9 -4
v 4.3 3.9 -4
v 4.4 3.9 -4
v 3.5 3.9 -4.1
v 3.6 3.9 -4.1
v 3.9 3.9 -4.1
v 4 3.9 -4.1
v 4.3 3.9 -4.1
v 4.4 3.9 -4.1
v 4.5 3.9 -4.1
v 3.4 3.9 -4.2
v 3.5 3.9 -4.2
v 3.6 3.9 -4.2
v 3.7 3.9 -4.2
v 3.8 3.9 -4.2
v 4.1 3.9 -4.2
v 4.2 3.9 -4.2
v 3.4 3.9 -4.3
v 3.5 3.9 -4.3
v 3.6 3.9 -4.3
v 3.7 3.9 -4.3
v 3.8 3.9 -4.3
v 4.1 3.9 -4.3
v 4.2 3.9 -4.3
v 4.4 3.9 -4.3
v 4.5 3.9 -4.3
v 3.5 3.9 -4.4
v 3.6 3.9 -4.4
v 3.9 3.9 -4.4
v 4 3.9 -4.4
v 4.1 3.9 -4.4
v 4.2 3.9 -4.4
v 4.3 3.9 -4.4
v 3.7 3.9 -4.5
v 3.9 3.9 -4.5
v 4 3.9 -4.5
v 4.1 3.9 -4.5
v 4.2 3.9 -4.5
v 4.3 3.9 -4.5
v 3.7 3.9 -4.6
v 3.9 3.9 -4.6
v 4.1 3.9 -4.6
v 4.2 3.9 -4.6
v 3.7 4 -3.5
v 3.8 4 -3.5
v 4 4 -3.5
v 4.2 4 -3.5
v 3.6 4 -3.6
v 3.7 4 -3.6
v 3.8 4 -3.6
v 3.9 4 -3.6
v 4 4 -3.6
v 4.2 4 -3.6
v 3.6 4 -3.7
v 3.7 4 -3.7
v 3.8 4 -3.7
v 3.9 4 -3.7
v 4 4 -3.7
v 4.3 4 -3.7
v 4.4 4 -3.7
v 3.4 4 -3.8
v 3.5 4 -3.8
v 3.7 4 -3.8
v 3.8 4 -3.8
v 4.1 4 -3.8
v 4.2 4 -3.8
v 4.3 4 -3.8
v 4.4 4 -3.8
v 4.5 4 -3.8
v 3.7 4 -3.9
v 3.8 4 -3.9
v 4.1 4 -3.9
v 4.2 4 -3.9
v 4.3 4 -3.9
v 4.4 4 -3.9
v 4.5 4 -3.9
v 3.4 4 -4
v 3.5 4 -4
v 3.6 4 -4
v 3.9 4 -4
v 4 4 -4
v 4.3 4 -4
v 4.4 4 -4
v 3.5 4 -4.1
v 3.6 4 -4.1
v 3.9 4 -4.1
v 4 4 -4.1
v 4.3 4 -4.1
v 4.4 4 -4.1
v 4.5 4 -4.1
v 3.4 4 -4.2
v 3.5 4 -4.2
v 3.6 4 -4.2
v 3.7 4 -4.2
v 3.8 4 -4.2
v 4.1 4 -4.2
v 4.2 4 -4.2
v 3.4 4 -4.3
v 3.5 4 -4.3
v 3.6 4 -4.3
v 3.7 4 -4.3
v 3.8 4 -4.3
v 4.1 4 -4.3
v 4.2 4 -4.3
v 4.4 4 -4.3
v 4.5 4 -4.3
v 3.5 4 -4.4
v 3.6 4 -4.4
v 3.9 4 -4.4
v 4 4 -4.4
v 4.1 4 -4.4
v 4.2 4 -4.4
v 4.3 4 -4.4
v 3.7 4 -4.5
v 3.9 4 -4.5
v 4 4 -4.5
v 4.1 4 -4.5
v 4.2 4 -4.5
v 4.3 4 -4.5
v 3.7 4 -4.6
v 3.9 4 -4.6
v 4.1 4 -4.6
v 4.2 4 -4.6

# faces
f 5/2/1 2/2/1 1/2/1
f 6/2/1 2/2/1 5/2/1
f 7/2/1 4/2/1 3/2/1
f 8/2/1 4/2/1 7/2/1
f 13/3/1 10/3/1 9/3/1
f 14/3/1 10/3/1 13/3/1
f 15/2/1 12/2/1 11/2/1
f 16/2/1 12/2/1 15/2/1
f 22/2/1 18/2/1 17/2/1
f 23/3/1 19/3/1 18/3/1
f 23/2/1 18/2/1 22/2/1
f 24/3/1 19/3/1 23/3/1
f 25/3/1 21/3/1 20/3/1
f 26/3/1 21/3/1 25/3/1
f 33/2/1 28/2/1 27/2/1
f 34/2/1 28/2/1 33/2/1
f 35/3/1 30/3/1 29/3/1
f 36/3/1 30/3/1 35/3/1
f 37/2/1 32/2/1 31/2/1
f 38/2/1 32/2/1 37/2/1
f 41/3/1 40/3/1 39/3/1
f 42/3/1 40/3/1 41/3/1
f 47/3/1 44/3/1 43/3/1
f 48/3/1 44/3/1 47/3/1
f 49/3/1 46/3/1 45/3/1
f 50/3/1 46/3/1 49/3/1
f 53/2/1 52/2/1 51/2/1
f 54/2/1 52/2/1 53/2/1
f 57/2/1 56/2/1 55/2/1
f 58/2/1 56/2/1 57/2/1
f 62/3/1 60/3/1 59/3/1
f 63/2/1 61/2/1 60/2/1
f 63/3/1 60/3/1 62/3/1
f 64/2/1 61/2/1 63/2/1
f 69/2/1 66/2/1 65/2/1
f 70/2/1 66/2/1 69/2/1
f 71/2/1 68/2/1 67/2/1
f 72/2/1 68/2/1 71/2/1
f 73/2/2 74/2/2 77/2/2
f 77/2/2 74/2/2 78/2/2
f 75/2/2 76/2/2 79/2/2
f 79/2/2 76/2/2 80/2/2
f 81/2/2 82/2/2 84/2/2
f 82/3/2 83/3/2 85/3/2
f 84/2/2 82/2/2 85/2/2
f 85/3/2 83/3/2 86/3/2
f 87/2/2 88/2/2 89/2/2
f 89/2/2 88/2/2 90/2/2
f 91/2/2 92/2/2 93/2/2
f 93/2/2 92/2/2 94/2/2
f 95/3/2 96/3/2 99/3/2
f 99/3/2 96/3/2 100/3/2
f 97/3/2 98/3/2 101/3/2
f 101/3/2 98/3/2 102/3/2
f 103/3/2 104/3/2 105/3/2
f 105/3/2 104/3/2 106/3/2
f 107/2/2 108/2/2 113/2/2
f 113/2/2 108/2/2 114/2/2
f 109/3/2 110/3/2 115/3/2
f 115/3/2 110/3/2 116/3/2
f 111/2/2 112/2/2 117/2/2
f 117/2/2 112/2/2 118/2/2
f 119/3/2 120/3/2 124/3/2
f 124/3/2 120/3/2 125/3/2
f 121/3/2 122/3/2 126/3/2
f 122/2/2 123/2/2 127/2/2
f 126/3/2 122/3/2 127/3/2
f 127/2/2 123/2/2 128/2/2
f 129/2/2 130/2/2 133/2/2
f 133/2/2 130/2/2 134/2/2
f 131/3/2 132/3/2 135/3/2
f 135/3/2 132/3/2 136/3/2
f 137/2/2 138/2/2 141/2/2
f 141/2/2 138/2/2 142/2/2
f 139/2/2 140/2/2 143/2/2
f 143/2/2 140/2/2 144/2/2
f 147/2/3 146/2/3 145/2/3
f 148/2/3 146/2/3 147/2/3
f 151/2/3 150/2/3 149/2/3
f 152/2/3 150/2/3 151/2/3
f 155/2/3 154/2/3 153/2/3
f 156/2/3 154/2/3 155/2/3
f 159/3/3 158/3/3 157/3/3
f 160/3/3 158/3/3 159/3/3
f 163/3/3 162/3/3 161/3/3
f 164/3/3 162/3/3 163/3/3
f 167/3/3 166/3/3 165/3/3
f 168/3/3 166/3/3 167/3/3
f 169/2/3 168/2/3 167/2/3
f 170/2/3 168/2/3 169/2/3
f 173/2/3 172/2/3 171/2/3
f 174/2/3 172/2/3 173/2/3
f 177/3/3 176/3/3 175/3/3
f 178/3/3 176/3/3 177/3/3
f 181/2/3 180/2/3 179/2/3
f 182/2/3 180/2/3 181/2/3
f 185/3/3 184/3/3 183/3/3
f 186/3/3 184/3/3 185/3/3
f 189/3/3 188/3/3 187/3/3
f 190/3/3 188/3/3 189/3/3
f 193/3/3 192/3/3 191/3/3
f 194/3/3 192/3/3 193/3/3
f 197/2/3 196/2/3 195/2/3
f 198/2/3 196/2/3 197/2/3
f 201/2/3 200/2/3 199/2/3
f 202/2/3 200/2/3 201/2/3
f 205/2/3 204/2/3 203/2/3
f 206/2/3 204/2/3 205/2/3
f 207/3/3 206/3/3 205/3/3
f 208/3/3 206/3/3 207/3/3
f 211/2/3 210/2/3 209/2/3
f 212/2/3 210/2/3 211/2/3
f 215/2/3 214/2/3 213/2/3
f 216/2/3 214/2/3 215/2/3
f 217/2/4 218/2/4 219/2/4
f 219/2/4 218/2/4 220/2/4
f 221/2/4 222/2/4 223/2/4
f 223/2/4 222/2/4 224/2/4
f 225/3/4 226/3/4 227/3/4
f 227/3/4 226/3/4 228/3/4
f 227/2/4 228/2/4 229/2/4
f 229/2/4 228/2/4 230/2/4
f 231/2/4 232/2/4 233/2/4
f 233/2/4 232/2/4 234/2/4
f 235/2/4 236/2/4 237/2/4
f 237/2/4 236/2/4 238/2/4
f 239/3/4 240/3/4 241/3/4
f 241/3/4 240/3/4 242/3/4
f 243/3/4 244/3/4 245/3/4
f 245/3/4 244/3/4 246/3/4
f 247/3/4 248/3/4 249/3/4
f 249/3/4 248/3/4 250/3/4
f 251/2/4 252/2/4 253/2/4
f 253/2/4 252/2/4 254/2/4
f 255/3/4 256/3/4 257/3/4
f 257/3/4 256/3/4 258/3/4
f 259/2/4 260/2/4 261/2/4
f 261/2/4 260/2/4 262/2/4
f 263/2/4 264/2/4 265/2/4
f 265/2/4 264/2/4 266/2/4
f 265/3/4 266/3/4 267/3/4
f 267/3/4 266/3/4 268/3/4
f 269/3/4 270/3/4 271/3/4
f 271/3/4 270/3/4 272/3/4
f 273/3/4 274/3/4 275/3/4
f 275/3/4 274/3/4 276/3/4
f 277/2/4 278/2/4 279/2/4
f 279/2/4 278/2/4 280/2/4
f 281/2/4 282/2/4 283/2/4
f 283/2/4 282/2/4 284/2/4
f 285/2/4 286/2/4 287/2/4
f 287/2/4 286/2/4 288/2/4
f 294/2/5 290/2/5 289/2/5
f 295/2/5 290/2/5 294/2/5
f 297/2/5 292/2/5 291/2/5
f 298/2/5 292/2/5 297/2/5
f 299/2/5 294/2/5 293/2/5
f 300/2/5 294/2/5 299/2/5
f 302/3/5 297/3/5 296/3/5
f 303/3/5 297/3/5 302/3/5
f 308/3/5 300/3/5 299/3/5
f 309/3/5 303/3/5 302/3/5
f 309/3/5 302/3/5 301/3/5
f 309/3/5 304/3/5 303/3/5
f 310/3/5 304/3/5 309/3/5
f 311/3/5 304/3/5 310/3/5
f 312/2/5 305/2/5 304/2/5
f 312/3/5 304/3/5 311/3/5
f 313/2/5 305/2/5 312/2/5
f 315/3/5 308/3/5 299/3/5
f 315/3/5 309/3/5 308/3/5
f 316/4/5 310/4/5 309/4/5
f 316/3/5 309/3/5 315/3/5
f 317/3/5 311/3/5 310/3/5
f 317/4/5 310/4/5 316/4/5
f 318/3/5 311/3/5 317/3/5
f 320/2/5 314/2/5 313/2/5
f 321/2/5 314/2/5 320/2/5
f 322/2/5 307/2/5 306/2/5
f 323/2/5 307/2/5 322/2/5
f 324/3/5 315/3/5 299/3/5
f 325/2/5 317/2/5 316/2/5
f 326/2/5 317/2/5 325/2/5
f 327/3/5 319/3/5 318/3/5
f 329/3/5 324/3/5 323/3/5
f 330/3/5 315/3/5 324/3/5
f 330/3/5 324/3/5 329/3/5
f 331/2/5 325/2/5 316/2/5
f 331/1/5 326/1/5 325/1/5
f 332/2/5 317/2/5 326/2/5
f 332/1/5 326/1/5 331/1/5
f 333/3/5 328/3/5 327/3/5
f 333/3/5 327/3/5 318/3/5
f 334/3/5 328/3/5 333/3/5
f 338/3/5 315/3/5 330/3/5
f 339/4/5 316/4/5 315/4/5
f 339/3/5 315/3/5 338/3/5
f 340/2/5 331/2/5 316/2/5
f 340/4/5 316/4/5 339/4/5
f 340/2/5 332/2/5 331/2/5
f 341/2/5 317/2/5 332/2/5
f 341/2/5 332/2/5 340/2/5
f 341/4/5 318/4/5 317/4/5
f 342/3/5 333/3/5 318/3/5
f 342/4/5 318/4/5 341/4/5
f 343/2/5 337/2/5 336/2/5
f 344/2/5 337/2/5 343/2/5
f 346/3/5 340/3/5 339/3/5
f 347/4/5 341/4/5 340/4/5
f 347/3/5 340/3/5 346/3/5
f 348/3/5 342/3/5 341/3/5
f 348/4/5 341/4/5 347/4/5
f 349/3/5 333/3/5 342/3/5
f 349/3/5 342/3/5 348/3/5
f 350/2/5 335/2/5 334/2/5
f 351/2/5 335/2/5 350/2/5
f 352/2/5 345/2/5 344/2/5
f 353/3/5 348/3/5 347/3/5
f 353/2/5 345/2/5 352/2/5
f 353/3/5 346/3/5 345/3/5
f 353/3/5 347/3/5 346/3/5
f 354/3/5 348/3/5 353/3/5
f 355/3/5 348/3/5 354/3/5
f 356/3/5 348/3/5 355/3/5
f 357/3/5 333/3/5 349/3/5
f 358/3/5 333/3/5 357/3/5
f 360/3/5 355/3/5 354/3/5
f 361/3/5 355/3/5 360/3/5
f 363/2/5 358/2/5 357/2/5
f 364/2/5 358/2/5 363/2/5
f 365/2/5 360/2/5 359/2/5
f 366/2/5 360/2/5 365/2/5
f 367/2/5 363/2/5 362/2/5
f 368/2/5 363/2/5 367/2/5
f 369/2/6 370/2/6 374/2/6
f 374/2/6 370/2/6 375/2/6
f 371/2/6 372/2/6 377/2/6
f 377/2/6 372/2/6 378/2/6
f 373/2/6 374/2/6 379/2/6
f 379/2/6 374/2/6 380/2/6
f 376/3/6 377/3/6 382/3/6
f 382/3/6 377/3/6 383/3/6
f 379/3/6 380/3/6 388/3/6
f 382/3/6 383/3/6 389/3/6
f 381/3/6 382/3/6 389/3/6
f 383/3/6 384/3/6 389/3/6
f 389/3/6 384/3/6 390/3/6
f 390/3/6 384/3/6 391/3/6
f 384/2/6 385/2/6 392/2/6
f 391/3/6 384/3/6 392/3/6
f 392/2/6 385/2/6 393/2/6
f 379/3/6 388/3/6 395/3/6
f 388/3/6 389/3/6 395/3/6
f 389/4/6 390/4/6 396/4/6
f 395/3/6 389/3/6 396/3/6
f 390/3/6 391/3/6 397/3/6
f 396/4/6 390/4/6 397/4/6
f 397/3/6 391/3/6 398/3/6
f 393/2/6 394/2/6 400/2/6
f 400/2/6 394/2/6 401/2/6
f 386/2/6 387/2/6 402/2/6
f 402/2/6 387/2/6 403/2/6
f 379/3/6 395/3/6 404/3/6
f 396/2/6 397/2/6 405/2/6
f 405/2/6 397/2/6 406/2/6
f 398/3/6 399/3/6 407/3/6
f 403/3/6 404/3/6 409/3/6
f 404/3/6 395/3/6 410/3/6
f 409/3/6 404/3/6 410/3/6
f 396/2/6 405/2/6 411/2/6
f 405/1/6 406/1/6 411/1/6
f 406/2/6 397/2/6 412/2/6
f 411/1/6 406/1/6 412/1/6
f 407/3/6 408/3/6 413/3/6
f 398/3/6 407/3/6 413/3/6
f 413/3/6 408/3/6 414/3/6
f 410/3/6 395/3/6 418/3/6
f 395/4/6 396/4/6 419/4/6
f 418/3/6 395/3/6 419/3/6
f 396/2/6 411/2/6 420/2/6
f 419/4/6 396/4/6 420/4/6
f 411/2/6 412/2/6 420/2/6
f 412/2/6 397/2/6 421/2/6
f 420/2/6 412/2/6 421/2/6
f 397/4/6 398/4/6 421/4/6
f 398/3/6 413/3/6 422/3/6
f 421/4/6 398/4/6 422/4/6
f 416/2/6 417/2/6 423/2/6
f 423/2/6 417/2/6 424/2/6
f 419/3/6 420/3/6 426/3/6
f 420/4/6 421/4/6 427/4/6
f 426/3/6 420/3/6 427/3/6
f 421/3/6 422/3/6 428/3/6
f 427/4/6 421/4/6 428/4/6
f 422/3/6 413/3/6 429/3/6
f 428/3/6 422/3/6 429/3/6
f 414/2/6 415/2/6 430/2/6
f 430/2/6 415/2/6 431/2/6
f 424/2/6 425/2/6 432/2/6
f 427/3/6 428/3/6 433/3/6
f 432/2/6 425/2/6 433/2/6
f 425/3/6 426/3/6 433/3/6
f 426/3/6 427/3/6 433/3/6
f 433/3/6 428/3/6 434/3/6
f 434/3/6 428/3/6 435/3/6
f 435/3/6 428/3/6 436/3/6
f 429/3/6 413/3/6 437/3/6
f 437/3/6 413/3/6 438/3/6
f 434/3/6 435/3/6 440/3/6
f 440/3/6 435/3/6 441/3/6
f 437/2/6 438/2/6 443/2/6
f 443/2/6 438/2/6 444/2/6
f 439/2/6 440/2/6 445/2/6
f 445/2/6 440/2/6 446/2/6
f 442/2/6 443/2/6 447/2/6
f 447/2/6 443/2/6 448/2/6
