# MagicaVoxel @ Ephtracy

# group
o 

# material
mtllib stand-0.mtl
usemtl palette

# normals
vn 1 0 0
vn -1 0 0
vn 0 0 1
vn 0 0 -1
vn 0 -1 0
vn 0 1 0

# texcoords
vt 0.146484 0.5
vt 0.158203 0.5
vt 0.181641 0.5
vt 0.486328 0.5

# verts
v 12.1 6.4 7.4
v 12.1 6.4 7.3
v 12.1 6.5 7.5
v 12.1 6.5 7.4
v 12.1 6.5 7.3
v 12.1 6.5 7.2
v 12.1 6.6 7.5
v 12.1 6.6 7.4
v 12.1 6.6 7.3
v 12.1 6.6 7.2
v 12.1 6.7 7.4
v 12.1 6.7 7.3
v 12.1 7.4 7.4
v 12.1 7.4 7.3
v 12.1 7.7 7.4
v 12.1 7.7 7.3
v 12 6.4 7.5
v 12 6.4 7.4
v 12 6.4 7.3
v 12 6.4 7.2
v 12 6.5 7.5
v 12 6.5 7.4
v 12 6.5 7.3
v 12 6.5 7.2
v 12 6.6 7.5
v 12 6.6 7.4
v 12 6.6 7.3
v 12 6.6 7.2
v 12 6.7 7.5
v 12 6.7 7.4
v 12 6.7 7.3
v 12 6.7 7.2
v 12 7.3 7.4
v 12 7.3 7.3
v 12 7.4 7.4
v 12 7.4 7.3
v 12 7.7 7.4
v 12 7.7 7.3
v 12 7.8 7.4
v 12 7.8 7.3
v 11.9 6.7 7.5
v 11.9 6.7 7.2
v 11.9 6.8 7.5
v 11.9 6.8 7.2
v 11.9 7.2 7.4
v 11.9 7.2 7.3
v 11.9 7.3 7.4
v 11.9 7.3 7.3
v 11.9 7.8 7.4
v 11.9 7.8 7.3
v 11.9 7.9 7.4
v 11.9 7.9 7.3
v 11.8 6.8 7.4
v 11.8 6.8 7.3
v 11.8 7.2 7.4
v 11.8 7.2 7.3
v 11.7 6.8 7.4
v 11.7 6.8 7.3
v 11.7 7.2 7.4
v 11.7 7.2 7.3
v 11.6 6.7 7.5
v 11.6 6.7 7.2
v 11.6 6.8 7.5
v 11.6 6.8 7.2
v 11.6 7.2 7.4
v 11.6 7.2 7.3
v 11.6 7.3 7.4
v 11.6 7.3 7.3
v 11.6 7.8 7.4
v 11.6 7.8 7.3
v 11.6 7.9 7.4
v 11.6 7.9 7.3
v 11.5 6.4 7.5
v 11.5 6.4 7.4
v 11.5 6.4 7.3
v 11.5 6.4 7.2
v 11.5 6.5 7.5
v 11.5 6.5 7.4
v 11.5 6.5 7.3
v 11.5 6.5 7.2
v 11.5 6.6 7.5
v 11.5 6.6 7.4
v 11.5 6.6 7.3
v 11.5 6.6 7.2
v 11.5 6.7 7.5
v 11.5 6.7 7.4
v 11.5 6.7 7.3
v 11.5 6.7 7.2
v 11.5 7.3 7.4
v 11.5 7.3 7.3
v 11.5 7.4 7.4
v 11.5 7.4 7.3
v 11.5 7.7 7.4
v 11.5 7.7 7.3
v 11.5 7.8 7.4
v 11.5 7.8 7.3
v 11.4 6.4 7.4
v 11.4 6.4 7.3
v 11.4 6.5 7.5
v 11.4 6.5 7.4
v 11.4 6.5 7.3
v 11.4 6.5 7.2
v 11.4 6.6 7.5
v 11.4 6.6 7.4
v 11.4 6.6 7.3
v 11.4 6.6 7.2
v 11.4 6.7 7.4
v 11.4 6.7 7.3
v 11.4 7.4 7.4
v 11.4 7.4 7.3
v 11.4 7.7 7.4
v 11.4 7.7 7.3
v 12.1 6.5 7.5
v 12.1 6.6 7.5
v 12 6.4 7.5
v 12 6.5 7.5
v 12 6.6 7.5
v 12 6.7 7.5
v 11.9 6.7 7.5
v 11.9 6.8 7.5
v 11.6 6.7 7.5
v 11.6 6.8 7.5
v 11.5 6.4 7.5
v 11.5 6.5 7.5
v 11.5 6.6 7.5
v 11.5 6.7 7.5
v 11.4 6.5 7.5
v 11.4 6.6 7.5
v 12.1 6.4 7.4
v 12.1 6.5 7.4
v 12.1 6.6 7.4
v 12.1 6.7 7.4
v 12.1 7.4 7.4
v 12.1 7.7 7.4
v 12 6.4 7.4
v 12 6.5 7.4
v 12 6.6 7.4
v 12 6.7 7.4
v 12 7.3 7.4
v 12 7.4 7.4
v 12 7.7 7.4
v 12 7.8 7.4
v 11.9 7.2 7.4
v 11.9 7.3 7.4
v 11.9 7.4 7.4
v 11.9 7.7 7.4
v 11.9 7.8 7.4
v 11.9 7.9 7.4
v 11.8 6.8 7.4
v 11.8 7.2 7.4
v 11.8 7.5 7.4
v 11.8 7.6 7.4
v 11.7 6.8 7.4
v 11.7 7.2 7.4
v 11.7 7.5 7.4
v 11.7 7.6 7.4
v 11.6 7.2 7.4
v 11.6 7.3 7.4
v 11.6 7.4 7.4
v 11.6 7.7 7.4
v 11.6 7.8 7.4
v 11.6 7.9 7.4
v 11.5 6.4 7.4
v 11.5 6.5 7.4
v 11.5 6.6 7.4
v 11.5 6.7 7.4
v 11.5 7.3 7.4
v 11.5 7.4 7.4
v 11.5 7.7 7.4
v 11.5 7.8 7.4
v 11.4 6.4 7.4
v 11.4 6.5 7.4
v 11.4 6.6 7.4
v 11.4 6.7 7.4
v 11.4 7.4 7.4
v 11.4 7.7 7.4
v 12.1 6.4 7.3
v 12.1 6.5 7.3
v 12.1 6.6 7.3
v 12.1 6.7 7.3
v 12.1 7.4 7.3
v 12.1 7.7 7.3
v 12 6.4 7.3
v 12 6.5 7.3
v 12 6.6 7.3
v 12 6.7 7.3
v 12 7.3 7.3
v 12 7.4 7.3
v 12 7.7 7.3
v 12 7.8 7.3
v 11.9 7.2 7.3
v 11.9 7.3 7.3
v 11.9 7.4 7.3
v 11.9 7.7 7.3
v 11.9 7.8 7.3
v 11.9 7.9 7.3
v 11.8 6.8 7.3
v 11.8 7.2 7.3
v 11.8 7.5 7.3
v 11.8 7.6 7.3
v 11.7 6.8 7.3
v 11.7 7.2 7.3
v 11.7 7.5 7.3
v 11.7 7.6 7.3
v 11.6 7.2 7.3
v 11.6 7.3 7.3
v 11.6 7.4 7.3
v 11.6 7.7 7.3
v 11.6 7.8 7.3
v 11.6 7.9 7.3
v 11.5 6.4 7.3
v 11.5 6.5 7.3
v 11.5 6.6 7.3
v 11.5 6.7 7.3
v 11.5 7.3 7.3
v 11.5 7.4 7.3
v 11.5 7.7 7.3
v 11.5 7.8 7.3
v 11.4 6.4 7.3
v 11.4 6.5 7.3
v 11.4 6.6 7.3
v 11.4 6.7 7.3
v 11.4 7.4 7.3
v 11.4 7.7 7.3
v 12.1 6.5 7.2
v 12.1 6.6 7.2
v 12 6.4 7.2
v 12 6.5 7.2
v 12 6.6 7.2
v 12 6.7 7.2
v 11.9 6.7 7.2
v 11.9 6.8 7.2
v 11.6 6.7 7.2
v 11.6 6.8 7.2
v 11.5 6.4 7.2
v 11.5 6.5 7.2
v 11.5 6.6 7.2
v 11.5 6.7 7.2
v 11.4 6.5 7.2
v 11.4 6.6 7.2
v 12 6.4 7.5
v 11.5 6.4 7.5
v 12.1 6.4 7.4
v 12 6.4 7.4
v 11.5 6.4 7.4
v 11.4 6.4 7.4
v 12.1 6.4 7.3
v 12 6.4 7.3
v 11.5 6.4 7.3
v 11.4 6.4 7.3
v 12 6.4 7.2
v 11.5 6.4 7.2
v 12.1 6.5 7.5
v 12 6.5 7.5
v 11.5 6.5 7.5
v 11.4 6.5 7.5
v 12.1 6.5 7.4
v 12 6.5 7.4
v 11.5 6.5 7.4
v 11.4 6.5 7.4
v 12.1 6.5 7.3
v 12 6.5 7.3
v 11.5 6.5 7.3
v 11.4 6.5 7.3
v 12.1 6.5 7.2
v 12 6.5 7.2
v 11.5 6.5 7.2
v 11.4 6.5 7.2
v 11.9 7.2 7.4
v 11.8 7.2 7.4
v 11.7 7.2 7.4
v 11.6 7.2 7.4
v 11.9 7.2 7.3
v 11.8 7.2 7.3
v 11.7 7.2 7.3
v 11.6 7.2 7.3
v 12 7.3 7.4
v 11.9 7.3 7.4
v 11.6 7.3 7.4
v 11.5 7.3 7.4
v 12 7.3 7.3
v 11.9 7.3 7.3
v 11.6 7.3 7.3
v 11.5 7.3 7.3
v 12.1 7.4 7.4
v 12 7.4 7.4
v 11.5 7.4 7.4
v 11.4 7.4 7.4
v 12.1 7.4 7.3
v 12 7.4 7.3
v 11.5 7.4 7.3
v 11.4 7.4 7.3
v 12.1 6.6 7.5
v 12 6.6 7.5
v 11.5 6.6 7.5
v 11.4 6.6 7.5
v 12.1 6.6 7.4
v 12 6.6 7.4
v 11.5 6.6 7.4
v 11.4 6.6 7.4
v 12.1 6.6 7.3
v 12 6.6 7.3
v 11.5 6.6 7.3
v 11.4 6.6 7.3
v 12.1 6.6 7.2
v 12 6.6 7.2
v 11.5 6.6 7.2
v 11.4 6.6 7.2
v 12 6.7 7.5
v 11.9 6.7 7.5
v 11.6 6.7 7.5
v 11.5 6.7 7.5
v 12.1 6.7 7.4
v 12 6.7 7.4
v 11.5 6.7 7.4
v 11.4 6.7 7.4
v 12.1 6.7 7.3
v 12 6.7 7.3
v 11.5 6.7 7.3
v 11.4 6.7 7.3
v 12 6.7 7.2
v 11.9 6.7 7.2
v 11.6 6.7 7.2
v 11.5 6.7 7.2
v 11.9 6.8 7.5
v 11.6 6.8 7.5
v 11.8 6.8 7.4
v 11.7 6.8 7.4
v 11.8 6.8 7.3
v 11.7 6.8 7.3
v 11.9 6.8 7.2
v 11.6 6.8 7.2
v 12.1 7.7 7.4
v 12 7.7 7.4
v 11.5 7.7 7.4
v 11.4 7.7 7.4
v 12.1 7.7 7.3
v 12 7.7 7.3
v 11.5 7.7 7.3
v 11.4 7.7 7.3
v 12 7.8 7.4
v 11.9 7.8 7.4
v 11.6 7.8 7.4
v 11.5 7.8 7.4
v 12 7.8 7.3
v 11.9 7.8 7.3
v 11.6 7.8 7.3
v 11.5 7.8 7.3
v 11.9 7.9 7.4
v 11.6 7.9 7.4
v 11.9 7.9 7.3
v 11.6 7.9 7.3

# faces
f 1/2/1 2/2/1 4/2/1
f 4/2/1 2/2/1 5/2/1
f 3/2/1 4/2/1 7/2/1
f 5/2/1 6/2/1 7/2/1
f 4/2/1 5/2/1 7/2/1
f 7/2/1 6/2/1 8/2/1
f 8/2/1 6/2/1 9/2/1
f 9/2/1 6/2/1 10/2/1
f 8/2/1 9/2/1 11/2/1
f 11/2/1 9/2/1 12/2/1
f 13/4/1 14/4/1 15/4/1
f 15/4/1 14/4/1 16/4/1
f 17/3/1 18/3/1 21/3/1
f 21/3/1 18/3/1 22/3/1
f 19/3/1 20/3/1 23/3/1
f 23/3/1 20/3/1 24/3/1
f 25/3/1 26/3/1 29/3/1
f 29/3/1 26/3/1 30/3/1
f 27/3/1 28/3/1 31/3/1
f 31/3/1 28/3/1 32/3/1
f 33/4/1 34/4/1 35/4/1
f 35/4/1 34/4/1 36/4/1
f 37/4/1 38/4/1 39/4/1
f 39/4/1 38/4/1 40/4/1
f 41/2/1 42/2/1 43/2/1
f 43/2/1 42/2/1 44/2/1
f 45/4/1 46/4/1 47/4/1
f 47/4/1 46/4/1 48/4/1
f 49/4/1 50/4/1 51/4/1
f 51/4/1 50/4/1 52/4/1
f 53/3/1 54/3/1 55/3/1
f 55/3/1 54/3/1 56/3/1
f 59/3/2 58/3/2 57/3/2
f 60/3/2 58/3/2 59/3/2
f 63/2/2 62/2/2 61/2/2
f 64/2/2 62/2/2 63/2/2
f 67/4/2 66/4/2 65/4/2
f 68/4/2 66/4/2 67/4/2
f 71/4/2 70/4/2 69/4/2
f 72/4/2 70/4/2 71/4/2
f 77/3/2 74/3/2 73/3/2
f 78/3/2 74/3/2 77/3/2
f 79/3/2 76/3/2 75/3/2
f 80/3/2 76/3/2 79/3/2
f 85/3/2 82/3/2 81/3/2
f 86/3/2 82/3/2 85/3/2
f 87/3/2 84/3/2 83/3/2
f 88/3/2 84/3/2 87/3/2
f 91/4/2 90/4/2 89/4/2
f 92/4/2 90/4/2 91/4/2
f 95/4/2 94/4/2 93/4/2
f 96/4/2 94/4/2 95/4/2
f 100/2/2 98/2/2 97/2/2
f 101/2/2 98/2/2 100/2/2
f 103/2/2 100/2/2 99/2/2
f 103/2/2 102/2/2 101/2/2
f 103/2/2 101/2/2 100/2/2
f 104/2/2 102/2/2 103/2/2
f 105/2/2 102/2/2 104/2/2
f 106/2/2 102/2/2 105/2/2
f 107/2/2 105/2/2 104/2/2
f 108/2/2 105/2/2 107/2/2
f 111/4/2 110/4/2 109/4/2
f 112/4/2 110/4/2 111/4/2
f 113/2/3 114/2/3 116/2/3
f 116/2/3 114/2/3 117/2/3
f 115/3/3 116/3/3 119/3/3
f 117/3/3 118/3/3 119/3/3
f 116/3/3 117/3/3 119/3/3
f 115/3/3 119/3/3 121/3/3
f 119/2/3 120/2/3 121/2/3
f 121/2/3 120/2/3 122/2/3
f 115/3/3 121/3/3 123/3/3
f 123/3/3 121/3/3 124/3/3
f 124/3/3 121/3/3 125/3/3
f 125/3/3 121/3/3 126/3/3
f 124/2/3 125/2/3 127/2/3
f 127/2/3 125/2/3 128/2/3
f 129/2/3 130/2/3 135/2/3
f 135/2/3 130/2/3 136/2/3
f 131/2/3 132/2/3 137/2/3
f 137/2/3 132/2/3 138/2/3
f 133/4/3 134/4/3 140/4/3
f 140/4/3 134/4/3 141/4/3
f 139/4/3 140/4/3 144/4/3
f 140/1/3 141/1/3 145/1/3
f 144/4/3 140/4/3 145/4/3
f 141/4/3 142/4/3 146/4/3
f 145/1/3 141/1/3 146/1/3
f 146/4/3 142/4/3 147/4/3
f 143/4/3 144/4/3 150/4/3
f 145/4/3 146/4/3 151/4/3
f 151/4/3 146/4/3 152/4/3
f 149/3/3 150/3/3 153/3/3
f 150/4/3 144/4/3 154/4/3
f 153/3/3 150/3/3 154/3/3
f 145/4/3 151/4/3 155/4/3
f 151/1/3 152/1/3 155/1/3
f 152/4/3 146/4/3 156/4/3
f 155/1/3 152/1/3 156/1/3
f 154/4/3 144/4/3 157/4/3
f 144/1/3 145/1/3 158/1/3
f 157/4/3 144/4/3 158/4/3
f 145/4/3 155/4/3 159/4/3
f 158/1/3 145/1/3 159/1/3
f 155/4/3 156/4/3 159/4/3
f 146/1/3 147/1/3 160/1/3
f 159/4/3 156/4/3 160/4/3
f 156/4/3 146/4/3 160/4/3
f 147/4/3 148/4/3 161/4/3
f 160/1/3 147/1/3 161/1/3
f 161/4/3 148/4/3 162/4/3
f 158/4/3 159/4/3 167/4/3
f 159/1/3 160/1/3 168/1/3
f 167/4/3 159/4/3 168/4/3
f 160/4/3 161/4/3 169/4/3
f 168/1/3 160/1/3 169/1/3
f 169/4/3 161/4/3 170/4/3
f 163/2/3 164/2/3 171/2/3
f 171/2/3 164/2/3 172/2/3
f 165/2/3 166/2/3 173/2/3
f 173/2/3 166/2/3 174/2/3
f 168/4/3 169/4/3 175/4/3
f 175/4/3 169/4/3 176/4/3
f 183/2/4 178/2/4 177/2/4
f 184/2/4 178/2/4 183/2/4
f 185/2/4 180/2/4 179/2/4
f 186/2/4 180/2/4 185/2/4
f 188/4/4 182/4/4 181/4/4
f 189/4/4 182/4/4 188/4/4
f 192/4/4 188/4/4 187/4/4
f 193/1/4 189/1/4 188/1/4
f 193/4/4 188/4/4 192/4/4
f 194/4/4 190/4/4 189/4/4
f 194/1/4 189/1/4 193/1/4
f 195/4/4 190/4/4 194/4/4
f 198/4/4 192/4/4 191/4/4
f 199/4/4 194/4/4 193/4/4
f 200/4/4 194/4/4 199/4/4
f 201/3/4 198/3/4 197/3/4
f 202/4/4 192/4/4 198/4/4
f 202/3/4 198/3/4 201/3/4
f 203/4/4 199/4/4 193/4/4
f 203/1/4 200/1/4 199/1/4
f 204/4/4 194/4/4 200/4/4
f 204/1/4 200/1/4 203/1/4
f 205/4/4 192/4/4 202/4/4
f 206/1/4 193/1/4 192/1/4
f 206/4/4 192/4/4 205/4/4
f 207/4/4 203/4/4 193/4/4
f 207/1/4 193/1/4 206/1/4
f 207/4/4 204/4/4 203/4/4
f 208/1/4 195/1/4 194/1/4
f 208/4/4 204/4/4 207/4/4
f 208/4/4 194/4/4 204/4/4
f 209/4/4 196/4/4 195/4/4
f 209/1/4 195/1/4 208/1/4
f 210/4/4 196/4/4 209/4/4
f 215/4/4 207/4/4 206/4/4
f 216/1/4 208/1/4 207/1/4
f 216/4/4 207/4/4 215/4/4
f 217/4/4 209/4/4 208/4/4
f 217/1/4 208/1/4 216/1/4
f 218/4/4 209/4/4 217/4/4
f 219/2/4 212/2/4 211/2/4
f 220/2/4 212/2/4 219/2/4
f 221/2/4 214/2/4 213/2/4
f 222/2/4 214/2/4 221/2/4
f 223/4/4 217/4/4 216/4/4
f 224/4/4 217/4/4 223/4/4
f 228/2/4 226/2/4 225/2/4
f 229/2/4 226/2/4 228/2/4
f 231/3/4 228/3/4 227/3/4
f 231/3/4 230/3/4 229/3/4
f 231/3/4 229/3/4 228/3/4
f 233/3/4 231/3/4 227/3/4
f 233/2/4 232/2/4 231/2/4
f 234/2/4 232/2/4 233/2/4
f 235/3/4 233/3/4 227/3/4
f 236/3/4 233/3/4 235/3/4
f 237/3/4 233/3/4 236/3/4
f 238/3/4 233/3/4 237/3/4
f 239/2/4 237/2/4 236/2/4
f 240/2/4 237/2/4 239/2/4
f 241/3/5 242/3/5 244/3/5
f 244/3/5 242/3/5 245/3/5
f 243/2/5 244/2/5 247/2/5
f 244/3/5 245/3/5 248/3/5
f 247/2/5 244/2/5 248/2/5
f 245/2/5 246/2/5 249/2/5
f 248/3/5 245/3/5 249/3/5
f 249/2/5 246/2/5 250/2/5
f 248/3/5 249/3/5 251/3/5
f 251/3/5 249/3/5 252/3/5
f 253/2/5 254/2/5 257/2/5
f 257/2/5 254/2/5 258/2/5
f 255/2/5 256/2/5 259/2/5
f 259/2/5 256/2/5 260/2/5
f 261/2/5 262/2/5 265/2/5
f 265/2/5 262/2/5 266/2/5
f 263/2/5 264/2/5 267/2/5
f 267/2/5 264/2/5 268/2/5
f 269/4/5 270/4/5 273/4/5
f 273/4/5 270/4/5 274/4/5
f 271/4/5 272/4/5 275/4/5
f 275/4/5 272/4/5 276/4/5
f 277/4/5 278/4/5 281/4/5
f 281/4/5 278/4/5 282/4/5
f 279/4/5 280/4/5 283/4/5
f 283/4/5 280/4/5 284/4/5
f 285/4/5 286/4/5 289/4/5
f 289/4/5 286/4/5 290/4/5
f 287/4/5 288/4/5 291/4/5
f 291/4/5 288/4/5 292/4/5
f 297/2/6 294/2/6 293/2/6
f 298/2/6 294/2/6 297/2/6
f 299/2/6 296/2/6 295/2/6
f 300/2/6 296/2/6 299/2/6
f 305/2/6 302/2/6 301/2/6
f 306/2/6 302/2/6 305/2/6
f 307/2/6 304/2/6 303/2/6
f 308/2/6 304/2/6 307/2/6
f 314/3/6 310/3/6 309/3/6
f 315/3/6 312/3/6 311/3/6
f 317/2/6 314/2/6 313/2/6
f 318/3/6 310/3/6 314/3/6
f 318/2/6 314/2/6 317/2/6
f 319/2/6 316/2/6 315/2/6
f 319/3/6 315/3/6 311/3/6
f 320/2/6 316/2/6 319/2/6
f 321/3/6 310/3/6 318/3/6
f 322/3/6 310/3/6 321/3/6
f 323/3/6 319/3/6 311/3/6
f 324/3/6 319/3/6 323/3/6
f 327/2/6 326/2/6 325/2/6
f 328/2/6 326/2/6 327/2/6
f 329/2/6 327/2/6 325/2/6
f 330/2/6 326/2/6 328/2/6
f 331/2/6 329/2/6 325/2/6
f 331/2/6 330/2/6 329/2/6
f 332/2/6 326/2/6 330/2/6
f 332/2/6 330/2/6 331/2/6
f 337/4/6 334/4/6 333/4/6
f 338/4/6 334/4/6 337/4/6
f 339/4/6 336/4/6 335/4/6
f 340/4/6 336/4/6 339/4/6
f 345/4/6 342/4/6 341/4/6
f 346/4/6 342/4/6 345/4/6
f 347/4/6 344/4/6 343/4/6
f 348/4/6 344/4/6 347/4/6
f 351/4/6 350/4/6 349/4/6
f 352/4/6 350/4/6 351/4/6
